<svg width="176" height="50" viewBox="0 0 176 50" fill="none" xmlns="http://www.w3.org/2000/svg">
<path d="M134.046 9.3112C134.738 8.53129 135.381 7.69951 136.131 6.98029C139.724 3.5364 143.96 1.27373 148.87 0.427197C156.973 -0.969744 164.149 1.05787 170.309 6.53151C171.181 7.30617 171.937 8.21081 172.743 9.05868C172.844 9.16502 172.924 9.29231 173.042 9.44886C167.201 9.44886 161.413 9.44886 155.594 9.44886C155.594 19.6214 155.594 29.7814 155.594 39.9671C161.545 39.9671 167.476 39.9671 173.551 39.9671C169.08 45.6655 163.404 49.1026 156.296 49.8404C147.092 50.7956 139.597 47.4435 133.744 40.3204C134.704 40.4014 135.663 40.5067 136.625 40.5587C139.193 40.6976 141.735 40.54 144.199 39.7357C146.471 38.9941 148.471 37.8311 149.925 35.8712C151.864 33.2576 152.158 29.2427 150.544 26.6036C149.57 25.0104 148.118 23.9264 146.417 23.2071C144.227 22.2809 141.901 21.8147 139.596 21.2709C138.255 20.9543 136.914 20.5867 135.625 20.104C133.938 19.4726 133.71 17.6136 135.124 16.4817C136.038 15.7501 137.149 15.6089 138.262 15.5421C141.332 15.358 144.191 16.1335 146.915 17.4958C147.146 17.6111 147.377 17.7253 147.644 17.858C148.527 15.7279 149.403 13.6138 150.289 11.4765C149.003 10.7096 147.655 10.1683 146.247 9.77446C142.803 8.81124 139.306 8.57035 135.762 9.04528C135.206 9.11981 134.657 9.24603 134.073 9.32805C134.041 9.30775 134.046 9.3112 134.046 9.3112Z" fill="#28252C"/>
<path d="M141.293 29.2951C142.119 29.6103 142.821 30.0125 143.018 30.9319C143.245 31.995 142.772 32.9567 141.686 33.3175C140.817 33.6061 139.89 33.8098 138.978 33.8631C135.703 34.0543 132.613 33.286 129.68 31.8528C129.522 31.7758 129.344 31.6093 129.301 31.4504C128.733 29.356 128.446 27.222 128.46 25.05C128.46 25.0246 128.484 24.9994 128.499 24.9683C129.077 25.3219 129.633 25.7158 130.234 26.0196C131.928 26.8757 133.769 27.2967 135.592 27.7659C137.34 28.2158 139.087 28.6691 140.834 29.1247C140.98 29.1627 141.118 29.2293 141.293 29.2951Z" fill="#28252C"/>
<path d="M174.956 28.4246C175.928 29.2263 176.07 30.2666 175.874 31.382C175.682 32.4729 174.935 33.1231 173.929 33.4098C173.178 33.6242 172.379 33.7532 171.598 33.7679C169.21 33.8128 166.82 33.7844 164.432 33.7833C164.343 33.7832 164.254 33.7695 164.127 33.759C164.118 33.5979 164.103 33.4517 164.103 33.3055C164.102 31.5405 164.111 29.7755 164.095 28.0107C164.092 27.6516 164.161 27.5065 164.564 27.5098C166.876 27.529 169.189 27.4987 171.502 27.5275C172.705 27.5424 173.909 27.6384 174.956 28.4246Z" fill="#33ADBB"/>
<path d="M173.911 16.8748C175.138 18.6664 174.307 20.8295 172.194 21.3454C171.61 21.4881 170.994 21.5483 170.391 21.5566C168.399 21.5838 166.406 21.5703 164.414 21.5709C164.327 21.5709 164.24 21.5553 164.126 21.5446C164.126 19.5811 164.126 17.6412 164.126 15.6854C164.186 15.6676 164.242 15.6359 164.298 15.6365C166.593 15.6585 168.89 15.6512 171.184 15.7227C172.198 15.7543 173.166 16.0464 173.911 16.8748Z" fill="#33ACBA"/>
<path d="M0.0557259 48.6793C0.0557259 48.6793 0.0397779 48.5314 0.0407539 48.321C0.0278263 41.9739 0.0139037 35.8373 0 29.7006C0 29.7006 0.0399069 29.5583 0.188356 29.469C3.84707 29.3786 7.36232 29.2684 10.8653 29.4278C12.369 29.4962 13.924 29.9466 15.3165 30.5466C16.8359 31.2012 17.5714 32.5636 17.6036 34.3002C17.6371 36.109 16.8278 37.4476 15.7562 38.2567C16.7085 39.6675 17.9693 40.8426 18.3612 42.2582C19.2162 45.3465 17.4355 48.0029 14.0067 48.3178C9.38429 48.7422 4.70858 48.5863 0.0557259 48.6793ZM5.54482 44.4094C7.43819 44.5012 9.33304 44.6815 11.2243 44.6496C12.2639 44.6321 13.0196 43.9561 13.0018 42.7946C12.9842 41.6397 12.2291 41.0127 11.1787 40.9602C9.34248 40.8684 7.49828 40.9346 5.57415 40.9346C5.57415 41.8752 5.57415 42.7135 5.53349 43.7534C5.54708 43.889 5.56067 44.0247 5.54482 44.4094ZM10.0171 36.9466C11.2386 36.9109 12.0896 36.3742 12.0521 35.0748C12.0155 33.8098 10.9899 33.4341 9.95751 33.3667C8.53273 33.2738 7.09733 33.3435 5.60931 33.3435C5.60931 34.6328 5.60931 35.742 5.60931 36.9652C7.06634 36.9652 8.40536 36.9652 10.0171 36.9466Z" fill="#37ABB8"/>
<path d="M106.979 20.6314C104.933 21.3283 103.772 20.9842 102.516 19.4532C100.976 17.5761 99.4212 15.7111 97.7222 13.6589C97.7222 16.1878 97.7222 18.493 97.7222 20.8525C96.3917 20.8525 95.1568 20.8525 93.8619 20.8525C93.8619 16.2732 93.8619 11.6992 93.8619 7.04591C94.8189 7.04591 95.7456 7.00519 96.665 7.06955C96.9587 7.09011 97.3022 7.33054 97.505 7.57017C99.3105 9.70349 101.09 11.8592 103.041 14.2059C103.041 11.7238 103.041 9.46275 103.041 7.11919C104.396 7.11919 105.627 7.11919 106.99 7.11919C106.99 11.5761 106.99 16.051 106.979 20.6314Z" fill="#28262C"/>
<path d="M13.4029 16.3305C11.8249 10.8457 15.9934 6.06401 21.6476 6.77106C27.0174 7.44258 29.9695 12.2732 27.8868 16.9803C26.4759 20.1688 22.6195 21.8903 18.8119 21.0125C16.2239 20.416 14.3945 18.9113 13.4029 16.3305ZM18.5511 10.7824C18.3263 11.0102 18.0721 11.2158 17.8815 11.4692C16.0766 13.8682 17.3876 17.4994 20.1805 17.8575C21.9075 18.0789 23.4086 17.3087 24.0929 15.8502C24.8108 14.3197 24.4674 12.141 23.3366 11.0532C22.1167 9.87969 20.3748 9.74686 18.5511 10.7824Z" fill="#2A282E"/>
<path d="M82.5959 6.85692C85.7742 6.47635 88.5247 7.14369 90.4394 9.74941C93.6579 14.1294 91.1079 20.1453 85.7028 21.0807C81.3849 21.8279 77.433 19.5603 76.5589 15.8338C75.538 11.4815 77.9389 7.85841 82.5959 6.85692ZM84.925 17.823C85.2555 17.688 85.604 17.5853 85.9137 17.4129C87.7294 16.4024 88.3435 13.7867 87.236 11.8379C86.2383 10.0822 83.8789 9.5257 82.0688 10.6191C80.6513 11.4754 80.0041 13.4807 80.5602 15.2932C81.1245 17.1325 82.5247 17.9876 84.925 17.823Z" fill="#2A282E"/>
<path d="M118.996 43.1569C120.214 44.9853 121.379 46.7152 122.749 48.7485C120.661 48.7485 118.932 48.8009 117.211 48.7084C116.824 48.6876 116.382 48.2217 116.108 47.8546C115.299 46.7728 114.595 45.6118 113.776 44.5384C113.507 44.1869 113.036 43.8425 112.616 43.7802C110.606 43.4826 110.378 43.7184 110.384 45.7717C110.392 48.7779 110.392 48.7779 107.368 48.7779C106.576 48.7779 105.784 48.7779 104.869 48.7779C104.828 48.1443 104.769 47.6584 104.768 47.1724C104.764 41.7515 104.799 36.3303 104.746 30.9099C104.735 29.7598 105.006 29.3048 106.238 29.3408C109.247 29.4287 112.263 29.3125 115.271 29.4162C120.676 29.6027 123.961 34.8733 121.656 39.6894C121.202 40.6382 120.268 41.3556 119.568 42.1901C119.34 42.4625 119.151 42.768 118.996 43.1569ZM110.561 33.8295C110.422 35.6286 110.284 37.4278 110.125 39.4873C111.916 39.3473 113.357 39.3083 114.773 39.1035C116.215 38.8951 116.785 37.7805 116.742 36.4897C116.699 35.2255 116.14 34.1072 114.677 33.9423C113.395 33.7979 112.097 33.7933 110.561 33.8295Z" fill="#39ABB8"/>
<path d="M58.5766 47.1977C58.4125 47.2656 58.2484 47.3334 57.9303 47.4879C52.359 50.6278 43.7283 49.561 41.1272 41.6348C41.1292 41.5786 41.0833 41.476 41.0897 41.3602C41.0534 41.0175 41.0107 40.7908 40.9789 40.464C40.9607 40.2341 40.9316 40.1042 40.9411 39.8739C40.9522 39.6355 40.9246 39.4974 40.9336 39.2357C40.9736 38.5953 40.9769 38.0786 41.0178 37.4499C41.0822 37.0254 41.1091 36.7128 41.207 36.3214C42.0109 34.8669 42.7437 33.4914 43.4766 32.1159C43.4766 32.1159 43.4925 32.1225 43.583 32.0796C46.5305 29.3799 49.9655 28.6803 53.7101 29.136C58.8194 29.7579 62.4619 33.9691 62.5006 39.1114C62.526 42.4859 60.9368 45.0134 58.5766 47.1977ZM56.5696 41.0516C57.1738 38.8356 57.0294 36.7475 55.3071 35.0527C53.5876 33.3606 51.2015 33.123 49.063 34.316C47.1563 35.3798 46.0888 37.981 46.6013 40.3145C47.1079 42.6215 48.853 44.2888 50.977 44.4951C53.5848 44.7484 55.4225 43.6746 56.5696 41.0516Z" fill="#38ABB8"/>
<path d="M95.0936 44.4686C97.2511 44.4813 99.2589 44.4925 101.267 44.5113C101.357 44.5121 101.447 44.582 101.658 44.6705C101.658 45.946 101.658 47.2722 101.658 48.6849C101.444 48.7388 101.215 48.8457 100.986 48.8463C96.4158 48.8585 91.8457 48.8816 87.2767 48.819C86.888 48.8137 86.1754 48.2233 86.1722 47.8992C86.1137 41.8739 86.1391 35.8479 86.1562 29.822C86.1565 29.6874 86.2675 29.5532 86.3478 29.3711C91.3003 29.3711 96.2537 29.3711 101.322 29.3711C101.322 30.7748 101.322 32.1021 101.322 33.6175C98.1999 33.6175 95.0682 33.6175 91.8552 33.6175C91.8552 34.773 91.8552 35.7415 91.8552 36.8765C94.6396 36.8765 97.33 36.8765 100.141 36.8765C100.141 38.3144 100.141 39.5877 100.141 41.0731C97.4005 41.0731 94.6712 41.0731 91.846 41.0731C91.846 42.2642 91.846 43.248 91.846 44.4684C92.8785 44.4684 93.9111 44.4684 95.0936 44.4686Z" fill="#3BABB8"/>
<path d="M51.5212 11.819C51.5212 10.2068 51.5212 8.70187 51.5212 7.1172C52.8088 7.1172 54.0421 7.1172 55.1905 7.1172C55.1905 10.3373 55.4778 13.5848 55.109 16.7559C54.7469 19.8694 51.8361 21.4854 48.1514 21.2015C44.5568 20.9246 42.4868 18.8832 42.3437 15.2642C42.2375 12.5781 42.3228 9.88432 42.3228 7.11426C43.5936 7.11426 44.8636 7.11426 46.2873 7.11426C46.2873 7.79545 46.2808 8.49621 46.2885 9.19682C46.3113 11.2789 46.2747 13.3644 46.3867 15.4419C46.4747 17.0737 47.3621 17.8687 48.8244 17.8858C50.37 17.9039 51.2443 17.1317 51.3986 15.4715C51.508 14.2961 51.4851 13.1084 51.5212 11.819Z" fill="#29282D"/>
<path d="M5.67415 18.09C6.29967 18.0252 6.8621 18.0428 7.34693 17.8574C7.64475 17.7436 7.99829 17.3245 8.00718 17.0327C8.01608 16.7404 7.69001 16.2876 7.40104 16.1661C6.68113 15.8634 5.89929 15.7074 5.14145 15.4956C4.41849 15.2935 3.6807 15.1346 2.97379 14.8871C1.53358 14.383 0.462819 13.4995 0.264558 11.879C0.042149 10.0613 0.681019 8.57825 2.30836 7.72645C5.33852 6.14035 8.36554 6.56985 11.4724 7.9153C11.0406 8.96418 10.6546 9.90167 10.3301 10.69C8.91627 10.3983 7.63912 10.1134 6.35209 9.88391C6.01297 9.82346 5.58343 9.8298 5.30162 9.99107C4.87352 10.236 4.53819 10.6431 4.16345 10.9814C4.51226 11.3335 4.80074 11.8511 5.22195 12.0047C6.22486 12.3704 7.29698 12.5411 8.32953 12.8318C10.9901 13.5809 12.0669 14.7402 12.0163 16.7551C11.963 18.875 10.6134 20.334 8.11792 20.9694C5.60769 21.6087 1.92832 21.0153 0 19.6201C0.405813 18.7007 0.819117 17.7643 1.15336 17.007C2.70085 17.3846 4.13959 17.7356 5.67415 18.09Z" fill="#2A292E"/>
<path d="M119.752 9.17504C119.501 9.77062 119.287 10.296 119.149 10.6362C117.592 10.3712 116.175 10.1065 114.75 9.90537C114.42 9.85881 113.995 9.93803 113.729 10.1238C113.411 10.3465 113.016 10.7502 113.023 11.0667C113.031 11.3713 113.457 11.8253 113.79 11.9341C114.977 12.3214 116.21 12.5656 117.413 12.9079C119.76 13.5757 120.785 14.7277 120.781 16.6344C120.776 18.7335 119.572 20.2827 117.334 20.8527C114.371 21.6075 111.534 21.2185 108.747 19.7349C109.203 18.6917 109.614 17.7536 109.911 17.0751C111.659 17.4303 113.275 17.7734 114.899 18.0759C115.203 18.1326 115.597 18.124 115.844 17.9729C116.231 17.7362 116.694 17.3981 116.8 17.0134C116.861 16.7898 116.347 16.2232 115.993 16.1026C114.776 15.6884 113.508 15.4297 112.274 15.0626C110.079 14.4094 109.019 13.1892 108.987 11.3474C108.955 9.46332 110.101 7.87113 112.15 7.22142C114.893 6.35187 117.566 6.65088 120.225 7.92333C120.056 8.38363 119.923 8.74422 119.752 9.17504Z" fill="#2A292E"/>
<path d="M65.2993 46.2969C65.283 42.1708 65.2667 38.0448 65.3853 33.7436C65.6182 32.9025 65.6642 32.2233 65.8306 31.5749C65.9652 31.0507 66.1843 30.1727 66.4706 30.1283C67.6595 29.9444 68.8886 29.9994 70.1012 30.0319C70.1898 30.0343 70.3154 30.552 70.3349 30.8362C70.3723 31.3843 70.3456 31.9367 70.3466 32.4872C70.349 33.8639 70.3072 35.2426 70.3696 36.6165C70.415 37.6154 71.0453 37.7222 71.6625 37.1137C73.4685 35.3328 75.2746 33.5438 76.9576 31.6485C78.8377 29.5314 79.7574 29.2429 82.5646 30.3628C82.3984 30.8654 82.2304 31.3734 82.0624 31.8814C82.0624 31.8814 82.0113 32.0058 81.8566 32.0555C80.6447 33.0521 79.5798 33.9908 78.5445 34.9612C78.4572 35.043 78.5686 35.3367 78.5877 35.5319C78.5877 35.5319 78.5361 35.5243 78.4523 35.5282C77.9115 35.8977 77.3615 36.1936 77.0224 36.6471C76.6329 37.1679 76.0393 38.0161 76.2202 38.3926C76.7413 39.4773 77.5912 40.4089 78.3418 41.3774C79.9942 43.5094 81.6651 45.627 83.3284 47.7505C83.2525 47.9289 83.1766 48.1073 83.1007 48.2857C81.2307 48.0608 79.3608 47.8358 77.4908 47.6108C77.4908 47.6108 77.4909 47.5935 77.4946 47.5103C77.4121 47.3631 77.3259 47.2992 77.2397 47.2353C77.2397 47.2353 77.2715 47.231 77.263 47.1314C76.1031 45.4555 74.9934 43.846 73.7785 42.3202C73.3364 41.765 72.64 41.365 72.182 42.4316C72.182 42.4316 72.1804 42.3977 72.073 42.3972C70.3068 42.6691 70.4057 44.017 70.3651 45.1729C70.2627 48.0899 70.1761 48.1902 67.2695 48.1296C66.4126 48.1117 65.7818 47.9909 65.7861 46.927C65.7869 46.7176 65.4698 46.507 65.2993 46.2969Z" fill="#39ABB8"/>
<path d="M64.7105 13.3288C64.7105 15.9012 64.7105 18.3661 64.7105 20.8684C63.3574 20.8684 62.1139 20.8684 60.7429 20.8684C60.7429 17.3502 60.7429 13.8582 60.7429 10.2351C59.2756 10.2351 57.9316 10.2351 56.5339 10.2351C56.5339 9.1164 56.5339 8.13108 56.5339 7.08984C60.6499 7.08984 64.7219 7.08984 68.8576 7.08984C68.8576 8.11039 68.8576 9.09493 68.8576 10.1704C67.492 10.1704 66.1779 10.1704 64.7105 10.1704C64.7105 11.244 64.7105 12.2327 64.7105 13.3288Z" fill="#28252C"/>
<path d="M34.5044 13.5485C34.5044 14.9765 34.5044 16.2968 34.5044 17.7313C36.7173 17.7313 38.8446 17.7313 41.042 17.7313C41.042 18.8291 41.042 19.8123 41.042 20.8565C37.5545 20.8565 34.0911 20.8565 30.5477 20.8565C30.5477 16.293 30.5477 11.7263 30.5477 7.0979C31.8266 7.0979 33.1003 7.0979 34.5044 7.0979C34.5044 9.231 34.5044 11.3359 34.5044 13.5485Z" fill="#2A292E"/>
<path d="M70.3525 10.9586C70.3525 9.63681 70.3525 8.42275 70.3525 7.12231C71.6635 7.12231 72.9258 7.12231 74.2508 7.12231C74.2508 11.6778 74.2508 16.218 74.2508 20.8408C73.0005 20.8408 71.7364 20.8408 70.3526 20.8408C70.3526 17.5657 70.3526 14.316 70.3525 10.9586Z" fill="#29282D"/>
<path d="M82.1537 31.8728C82.2313 31.3754 82.3993 30.8674 82.5655 30.3648C79.7583 29.2449 78.8386 29.5334 76.9585 31.6505C75.2755 33.5458 73.4694 35.3348 71.6634 37.1157C71.0462 37.7242 70.4159 37.6174 70.3705 36.6185C70.3081 35.2446 70.3498 33.8659 70.3475 32.4893C70.3465 31.9387 70.3732 31.3863 70.3358 30.8382C70.3163 30.554 70.1907 30.0363 70.1021 30.0339C68.8895 30.0014 67.6604 29.9464 66.4715 30.1303C66.1852 30.1747 65.966 31.0527 65.8315 31.5769C65.6651 32.2253 65.6191 32.9045 65.4106 33.6067C65.3002 32.246 65.3002 30.8491 65.3002 29.2244C66.9314 29.2244 68.5296 29.166 70.1158 29.2784C70.3996 29.2985 70.8379 30.0158 70.8553 30.426C70.9349 32.3068 70.8903 34.1929 70.8903 36.5343C71.6525 36.0039 72.0778 35.8012 72.3802 35.482C74.0681 33.7005 75.7134 31.8783 77.4061 30.1014C77.7351 29.756 78.1997 29.3351 78.6189 29.3155C80.452 29.2295 82.2914 29.2785 84.5543 29.2785C83.6004 30.3454 82.9222 31.1038 82.1537 31.8728Z" fill="#57AAB4"/>
<path d="M77.5147 47.7153C79.3609 47.8361 81.2308 48.061 83.1008 48.286C83.1767 48.1076 83.2526 47.9292 83.3285 47.7508C81.6652 45.6273 79.9943 43.5097 78.3419 41.3777C77.5913 40.4092 76.7414 39.4775 76.2203 38.3929C76.0395 38.0163 76.633 37.1682 77.0225 36.6473C77.3617 36.1938 77.9116 35.898 78.4777 35.5222C78.5623 35.608 78.5587 35.7166 78.5097 35.7979C77.9984 36.6459 77.0469 37.5094 77.0845 38.3289C77.1223 39.1566 78.1205 39.9535 78.7298 40.7393C80.4378 42.9424 82.1681 45.1282 83.8744 47.3326C84.1645 47.7075 84.379 48.141 84.792 48.8138C82.5235 48.8138 80.5495 48.8634 78.5823 48.769C78.2201 48.7516 77.8858 48.1509 77.5147 47.7153Z" fill="#57AAB4"/>
<path d="M65.2682 46.4296C65.4704 46.5063 65.7875 46.717 65.7867 46.9264C65.7824 47.9903 66.4132 48.1111 67.2701 48.129C70.1767 48.1896 70.2634 48.0893 70.3658 45.1722C70.4063 44.0164 70.3074 42.6685 72.0845 42.4097C70.6221 43.7885 70.8159 45.6318 70.9165 47.4155C70.9782 48.5101 70.6407 48.9836 69.4879 48.9195C68.1432 48.8446 66.7911 48.902 65.2365 48.902C65.2365 48.0201 65.2365 47.2916 65.2682 46.4296Z" fill="#57AAB4"/>
<path d="M72.298 42.4102C72.6398 41.3682 73.3362 41.7681 73.7783 42.3233C74.9932 43.8491 76.1029 45.4587 77.2519 47.1464C76.0625 45.8733 74.8999 44.4666 73.6716 43.1197C73.3595 42.7774 72.8389 42.6252 72.298 42.4102Z" fill="#57AAB4"/>
<path d="M78.6815 35.5092C78.5681 35.344 78.4567 35.0503 78.544 34.9685C79.5793 33.9982 80.6442 33.0594 81.7992 32.0986C80.8566 33.2163 79.8162 34.3477 78.6815 35.5092Z" fill="#57AAB4"/>
<path d="M77.2552 47.3169C77.3256 47.3008 77.4117 47.3647 77.5029 47.5126C77.4289 47.53 77.35 47.4634 77.2552 47.3169Z" fill="#57AAB4"/>
<path d="M134.038 9.30737C134.036 9.32524 134.037 9.34455 134.037 9.36386C134.028 9.35088 134.02 9.33789 134.028 9.31855C134.046 9.31218 134.041 9.30881 134.038 9.30737Z" fill="#28252C"/>
<path d="M26.9848 44.0624C26.9538 45.639 26.9538 47.0834 26.9538 48.6423C25.0951 48.6423 23.4131 48.6423 21.5466 48.6423C21.5132 48.197 21.4472 47.7191 21.4462 47.2411C21.4348 41.7702 21.462 36.2991 21.4055 30.8288C21.3939 29.713 21.698 29.3399 22.8408 29.3731C25.5489 29.4518 28.2611 29.3728 30.971 29.4094C34.6954 29.4598 37.5809 31.271 38.5129 34.0823C39.6473 37.5041 38.7058 40.126 35.2806 42.7864C36.5244 44.6547 37.7787 46.5388 39.2498 48.7484C37.2126 48.7484 35.5342 48.7923 33.8617 48.713C33.509 48.6964 33.0985 48.2879 32.8514 47.9577C32.1318 46.9956 31.4892 45.9764 30.8024 44.9894C29.7253 43.4417 28.9284 43.224 26.9848 44.0624ZM32.022 38.8277C33.3285 38.2978 33.4847 37.1325 33.1987 36.0616C32.9953 35.3001 32.3572 34.2717 31.7089 34.0897C30.225 33.673 28.6159 33.7018 27.0284 33.5469C27.0284 35.6998 27.0284 37.479 27.0284 39.629C28.7267 39.3495 30.2548 39.098 31.7431 38.7917C31.7431 38.7917 31.7992 38.8297 32.022 38.8277Z" fill="#38ABB8"/>
</svg>
