<svg width="145" height="132" viewBox="0 0 145 132" fill="none" xmlns="http://www.w3.org/2000/svg">
<path d="M52.8412 37.3423C53.6292 36.4543 54.3606 35.5073 55.2148 34.6885C59.3051 30.7675 64.1289 28.1914 69.7192 27.2276C78.9441 25.6371 87.1143 27.9456 94.1274 34.1775C95.12 35.0595 95.9812 36.0894 96.8991 37.0548C97.0142 37.1758 97.1043 37.3208 97.2396 37.499C90.5886 37.499 83.9997 37.499 77.374 37.499C77.374 49.0807 77.374 60.6481 77.374 72.2449C84.15 72.2449 90.9023 72.2449 97.8182 72.2449C92.7288 78.7327 86.2663 82.646 78.1732 83.4859C67.6939 84.5735 59.1612 80.757 52.4967 72.6472C53.5903 72.7394 54.6824 72.8592 55.7778 72.9185C58.7014 73.0766 61.5958 72.8971 64.4009 71.9815C66.9875 71.1371 69.2639 69.813 70.9195 67.5816C73.1272 64.606 73.4621 60.0348 71.6245 57.0302C70.5151 55.2163 68.862 53.9821 66.9256 53.1631C64.4323 52.1086 61.7838 51.5779 59.1603 50.9588C57.6327 50.5982 56.1067 50.1797 54.6388 49.6302C52.7184 48.9114 52.4584 46.7948 54.0683 45.5061C55.1089 44.6731 56.3741 44.5124 57.6412 44.4364C61.1361 44.2267 64.3919 45.1096 67.4933 46.6606C67.7558 46.7919 68.0189 46.922 68.3229 47.0731C69.328 44.6479 70.3257 42.2409 71.3342 39.8075C69.8702 38.9344 68.3357 38.3181 66.7324 37.8697C62.8114 36.7731 58.83 36.4988 54.7953 37.0395C54.1622 37.1244 53.5369 37.2681 52.8718 37.3615C52.8355 37.3384 52.8412 37.3423 52.8412 37.3423Z" fill="#28252C"/>
<path d="M61.0915 60.094C62.0321 60.4528 62.8314 60.9107 63.0552 61.9575C63.3139 63.1678 62.7753 64.2628 61.5388 64.6736C60.5497 65.0022 59.4947 65.2341 58.4564 65.2947C54.727 65.5125 51.2093 64.6377 47.8695 63.006C47.6901 62.9183 47.4868 62.7288 47.4378 62.5479C46.7918 60.1633 46.465 57.7337 46.481 55.2607C46.4811 55.2318 46.5078 55.2031 46.5254 55.1677C47.1833 55.5704 47.8159 56.0188 48.5003 56.3647C50.4288 57.3393 52.5252 57.8187 54.6011 58.353C56.5913 58.8651 58.5804 59.3812 60.5688 59.8999C60.7349 59.9432 60.8925 60.0191 61.0915 60.094Z" fill="#28252C"/>
<path d="M99.4173 59.1023C100.524 60.0152 100.687 61.1995 100.463 62.4695C100.245 63.7114 99.3935 64.4517 98.2486 64.7782C97.3931 65.0222 96.4833 65.1691 95.5943 65.1859C92.8756 65.237 90.1553 65.2047 87.4356 65.2034C87.3342 65.2033 87.2328 65.1877 87.0889 65.1758C87.0787 64.9923 87.0615 64.8259 87.0613 64.6594C87.0597 62.6499 87.0706 60.6404 87.0525 58.6311C87.0488 58.2223 87.1276 58.0571 87.5859 58.0609C90.2188 58.0827 92.8523 58.0482 95.485 58.0809C96.855 58.098 98.2254 58.2073 99.4173 59.1023Z" fill="#33ADBB"/>
<path d="M98.2276 45.9477C99.6246 47.9875 98.6783 50.4502 96.2732 51.0377C95.6082 51.2001 94.9066 51.2687 94.2204 51.278C91.9524 51.3091 89.6837 51.2937 87.4153 51.2943C87.3159 51.2943 87.2165 51.2766 87.0878 51.2644C87.0878 49.0289 87.0878 46.8203 87.0878 44.5935C87.1557 44.5733 87.2193 44.5372 87.2826 44.5378C89.8962 44.5629 92.5108 44.5546 95.1226 44.636C96.2781 44.672 97.3797 45.0046 98.2276 45.9477Z" fill="#33ACBA"/>
<path d="M83.3221 98.8093C83.3221 98.8093 83.3166 98.7583 83.317 98.6857C83.3125 96.4976 83.3077 94.382 83.3029 92.2664C83.3029 92.2664 83.3167 92.2174 83.3679 92.1866C84.6292 92.1555 85.841 92.1175 87.0487 92.1724C87.5671 92.196 88.1031 92.3513 88.5832 92.5581C89.107 92.7838 89.3606 93.2535 89.3717 93.8521C89.3832 94.4757 89.1042 94.9372 88.7348 95.2161C89.0631 95.7025 89.4977 96.1076 89.6329 96.5956C89.9276 97.6603 89.3137 98.5761 88.1317 98.6846C86.5381 98.831 84.9262 98.7772 83.3221 98.8093ZM85.2145 97.3372C85.8672 97.3689 86.5204 97.431 87.1724 97.42C87.5308 97.414 87.7914 97.181 87.7852 96.7805C87.7791 96.3824 87.5188 96.1662 87.1567 96.1481C86.5237 96.1165 85.8879 96.1393 85.2246 96.1393C85.2246 96.4636 85.2246 96.7526 85.2106 97.1111C85.2152 97.1578 85.2199 97.2046 85.2145 97.3372ZM86.7563 94.7645C87.1774 94.7522 87.4708 94.5672 87.4578 94.1192C87.4452 93.6831 87.0916 93.5536 86.7357 93.5303C86.2445 93.4983 85.7497 93.5223 85.2367 93.5223C85.2367 93.9668 85.2367 94.3492 85.2367 94.7709C85.739 94.7709 86.2006 94.7709 86.7563 94.7645Z" fill="#37ABB8"/>
<path d="M73.0339 98.7C72.0468 99.0364 71.4862 98.8703 70.88 98.1314C70.1367 97.2254 69.3863 96.3253 68.5663 95.3348C68.5663 96.5554 68.5663 97.668 68.5663 98.8067C67.9242 98.8067 67.3281 98.8067 66.7032 98.8067C66.7032 96.5966 66.7032 94.389 66.7032 92.1431C67.1651 92.1431 67.6123 92.1234 68.0561 92.1545C68.1978 92.1644 68.3636 92.2805 68.4615 92.3961C69.3329 93.4258 70.1915 94.4662 71.1332 95.5988C71.1332 94.4009 71.1332 93.3096 71.1332 92.1785C71.7875 92.1785 72.3813 92.1785 73.0394 92.1785C73.0394 94.3296 73.0394 96.4893 73.0339 98.7Z" fill="#28262C"/>
<path d="M27.8702 96.6235C27.1086 93.9763 29.1205 91.6684 31.8495 92.0097C34.4411 92.3338 35.866 94.6653 34.8607 96.9371C34.1798 98.476 32.3186 99.3069 30.4808 98.8832C29.2318 98.5953 28.3488 97.8691 27.8702 96.6235ZM30.3549 93.9457C30.2465 94.0557 30.1238 94.1549 30.0318 94.2772C29.1607 95.4351 29.7934 97.1877 31.1414 97.3605C31.9749 97.4673 32.6994 97.0956 33.0296 96.3917C33.3762 95.653 33.2104 94.6014 32.6646 94.0764C32.0759 93.51 31.2352 93.4459 30.3549 93.9457Z" fill="#2A282E"/>
<path d="M61.2655 92.0526C62.7995 91.8689 64.127 92.191 65.0511 93.4486C66.6045 95.5626 65.3737 98.4661 62.765 98.9176C60.681 99.2782 58.7737 98.1838 58.3518 96.3852C57.8591 94.2846 59.0178 92.536 61.2655 92.0526ZM62.3896 97.3453C62.5492 97.2801 62.7173 97.2306 62.8668 97.1474C63.7431 96.6596 64.0395 95.3972 63.505 94.4566C63.0235 93.6093 61.8847 93.3407 61.0111 93.8684C60.327 94.2817 60.0146 95.2495 60.283 96.1243C60.5553 97.012 61.2312 97.4247 62.3896 97.3453Z" fill="#2A282E"/>
<path d="M124.326 96.8958C124.746 97.5261 125.147 98.1225 125.62 98.8235C124.9 98.8235 124.304 98.8415 123.71 98.8096C123.577 98.8024 123.425 98.6418 123.33 98.5153C123.051 98.1423 122.809 97.7421 122.526 97.372C122.434 97.2509 122.271 97.1321 122.126 97.1107C121.433 97.0081 121.355 97.0893 121.357 97.7972C121.36 98.8336 121.36 98.8336 120.317 98.8336C120.044 98.8336 119.771 98.8336 119.456 98.8336C119.441 98.6152 119.421 98.4476 119.421 98.2801C119.419 96.4113 119.431 94.5423 119.413 92.6737C119.409 92.2772 119.503 92.1203 119.928 92.1328C120.965 92.1631 122.005 92.123 123.042 92.1588C124.905 92.223 126.038 94.04 125.243 95.7004C125.086 96.0275 124.764 96.2748 124.523 96.5625C124.444 96.6564 124.379 96.7617 124.326 96.8958ZM121.418 93.6802C121.37 94.3004 121.322 94.9207 121.267 95.6307C121.885 95.5824 122.382 95.569 122.87 95.4984C123.367 95.4265 123.564 95.0423 123.549 94.5973C123.534 94.1615 123.341 93.7759 122.837 93.7191C122.395 93.6693 121.947 93.6677 121.418 93.6802Z" fill="#39ABB8"/>
<path d="M103.497 98.2921C103.44 98.3155 103.383 98.3389 103.274 98.3921C101.353 99.4746 98.3778 99.1069 97.481 96.3743C97.4817 96.355 97.4659 96.3196 97.4681 96.2797C97.4556 96.1615 97.4409 96.0834 97.4299 95.9707C97.4236 95.8915 97.4136 95.8467 97.4169 95.7673C97.4207 95.6851 97.4112 95.6375 97.4143 95.5473C97.4281 95.3265 97.4292 95.1483 97.4433 94.9316C97.4655 94.7853 97.4748 94.6775 97.5085 94.5426C97.7857 94.0411 98.0383 93.5669 98.291 93.0927C98.291 93.0927 98.2965 93.095 98.3277 93.0802C99.3438 92.1495 100.528 91.9083 101.819 92.0655C103.58 92.2798 104.836 93.7316 104.849 95.5044C104.858 96.6677 104.31 97.5391 103.497 98.2921ZM102.805 96.1733C103.013 95.4093 102.963 94.6895 102.369 94.1052C101.777 93.5219 100.954 93.4399 100.217 93.8512C99.5596 94.218 99.1915 95.1147 99.3682 95.9192C99.5429 96.7145 100.144 97.2893 100.877 97.3604C101.776 97.4477 102.409 97.0776 102.805 96.1733Z" fill="#38ABB8"/>
<path d="M116.086 97.3503C116.83 97.3547 117.522 97.3585 118.214 97.365C118.245 97.3653 118.276 97.3894 118.349 97.4199C118.349 97.8596 118.349 98.3168 118.349 98.8038C118.275 98.8224 118.196 98.8593 118.117 98.8595C116.542 98.8637 114.966 98.8716 113.391 98.8501C113.257 98.8482 113.011 98.6447 113.01 98.533C112.99 96.4558 112.999 94.3783 113.005 92.3009C113.005 92.2546 113.043 92.2083 113.071 92.1455C114.778 92.1455 116.486 92.1455 118.233 92.1455C118.233 92.6294 118.233 93.087 118.233 93.6094C117.157 93.6094 116.077 93.6094 114.969 93.6094C114.969 94.0078 114.969 94.3417 114.969 94.733C115.929 94.733 116.857 94.733 117.826 94.733C117.826 95.2287 117.826 95.6676 117.826 96.1797C116.881 96.1797 115.94 96.1797 114.966 96.1797C114.966 96.5903 114.966 96.9295 114.966 97.3502C115.322 97.3502 115.678 97.3502 116.086 97.3503Z" fill="#3BABB8"/>
<path d="M46.2678 94.4462C46.2678 93.6681 46.2678 92.9418 46.2678 92.177C46.8892 92.177 47.4845 92.177 48.0388 92.177C48.0388 93.7311 48.1774 95.2985 47.9994 96.829C47.8246 98.3317 46.4198 99.1117 44.6414 98.9746C42.9065 98.841 41.9074 97.8557 41.8383 96.1091C41.7871 94.8126 41.8283 93.5125 41.8283 92.1755C42.4416 92.1755 43.0545 92.1755 43.7417 92.1755C43.7417 92.5043 43.7386 92.8425 43.7423 93.1807C43.7533 94.1856 43.7356 95.1921 43.7897 96.1948C43.8322 96.9824 44.2604 97.3661 44.9662 97.3743C45.7122 97.3831 46.1341 97.0104 46.2086 96.2091C46.2614 95.6418 46.2504 95.0685 46.2678 94.4462Z" fill="#29282D"/>
<path d="M24.14 97.4722C24.4419 97.441 24.7133 97.4494 24.9473 97.36C25.091 97.305 25.2617 97.1027 25.266 96.9619C25.2703 96.8208 25.1129 96.6023 24.9734 96.5437C24.626 96.3975 24.2486 96.3223 23.8828 96.22C23.5339 96.1225 23.1778 96.0458 22.8366 95.9264C22.1415 95.6831 21.6247 95.2566 21.5291 94.4745C21.4217 93.5972 21.7301 92.8814 22.5155 92.4703C23.978 91.7048 25.4389 91.9121 26.9384 92.5615C26.73 93.0677 26.5437 93.5202 26.3871 93.9007C25.7047 93.7599 25.0883 93.6224 24.4672 93.5116C24.3035 93.4824 24.0962 93.4855 23.9602 93.5633C23.7535 93.6816 23.5917 93.878 23.4108 94.0413C23.5792 94.2112 23.7184 94.461 23.9217 94.5352C24.4057 94.7117 24.9232 94.7941 25.4215 94.9344C26.7056 95.296 27.2254 95.8555 27.2009 96.8279C27.1752 97.8511 26.5238 98.5552 25.3194 98.862C24.1079 99.1705 22.3321 98.8841 21.4014 98.2107C21.5972 97.767 21.7967 97.315 21.958 96.9495C22.7049 97.1317 23.3993 97.3012 24.14 97.4722Z" fill="#2A292E"/>
<path d="M79.1987 93.1688C79.0775 93.4562 78.9742 93.7098 78.9074 93.874C78.1558 93.7461 77.4721 93.6183 76.7841 93.5213C76.6249 93.4988 76.4201 93.537 76.2918 93.6267C76.1379 93.7342 75.9473 93.929 75.951 94.0818C75.9545 94.2288 76.1602 94.4479 76.3211 94.5004C76.8941 94.6873 77.4891 94.8052 78.0697 94.9704C79.2025 95.2927 79.697 95.8487 79.695 96.769C79.6928 97.7821 79.1115 98.5298 78.0315 98.8049C76.6015 99.1692 75.2322 98.9814 73.887 98.2654C74.1074 97.7619 74.3056 97.3092 74.4489 96.9817C75.2923 97.1531 76.0725 97.3187 76.8563 97.4647C77.0031 97.4921 77.1933 97.4879 77.3124 97.415C77.4992 97.3007 77.7225 97.1376 77.7737 96.9519C77.8034 96.844 77.5552 96.5705 77.3841 96.5123C76.7969 96.3124 76.1848 96.1876 75.5892 96.0104C74.5298 95.6951 74.0185 95.1062 74.003 94.2173C73.9873 93.3079 74.5403 92.5395 75.5296 92.2259C76.8535 91.8062 78.1435 91.9505 79.4269 92.5647C79.345 92.7868 79.2809 92.9608 79.1987 93.1688Z" fill="#2A292E"/>
<path d="M105.814 97.9814C105.809 96.559 105.803 95.1365 105.844 93.6537C105.924 93.3638 105.94 93.1296 105.998 92.9061C106.044 92.7254 106.119 92.4227 106.218 92.4074C106.628 92.344 107.052 92.3629 107.47 92.3741C107.5 92.375 107.544 92.5534 107.55 92.6514C107.563 92.8404 107.554 93.0308 107.554 93.2206C107.555 93.6952 107.541 94.1705 107.562 94.6442C107.578 94.9885 107.795 95.0253 108.008 94.8155C108.631 94.2016 109.253 93.5848 109.834 92.9315C110.482 92.2016 110.799 92.1022 111.767 92.4882C111.709 92.6615 111.651 92.8366 111.593 93.0117C111.593 93.0117 111.576 93.0547 111.522 93.0718C111.105 93.4153 110.738 93.739 110.381 94.0735C110.351 94.1017 110.389 94.2029 110.396 94.2703C110.396 94.2703 110.378 94.2676 110.349 94.269C110.162 94.3963 109.973 94.4984 109.856 94.6547C109.722 94.8343 109.517 95.1267 109.579 95.2565C109.759 95.6304 110.052 95.9516 110.311 96.2855C110.88 97.0204 111.456 97.7505 112.03 98.4825C112.004 98.544 111.977 98.6056 111.951 98.6671C111.307 98.5895 110.662 98.5119 110.017 98.4344C110.017 98.4344 110.017 98.4284 110.019 98.3997C109.99 98.349 109.961 98.327 109.931 98.3049C109.931 98.3049 109.942 98.3034 109.939 98.2691C109.539 97.6913 109.156 97.1365 108.738 96.6105C108.585 96.4191 108.345 96.2812 108.187 96.6489C108.187 96.6489 108.187 96.6372 108.15 96.637C107.541 96.7307 107.575 97.1954 107.561 97.5939C107.526 98.5995 107.496 98.6341 106.494 98.6132C106.198 98.6071 105.981 98.5654 105.982 98.1987C105.982 98.1265 105.873 98.0538 105.814 97.9814Z" fill="#39ABB8"/>
<path d="M52.6332 95.1762C52.6333 96.4178 52.6333 97.6075 52.6333 98.8151C51.9802 98.8151 51.38 98.8151 50.7183 98.8151C50.7183 97.1171 50.7183 95.4317 50.7183 93.6831C50.0102 93.6831 49.3615 93.6831 48.6869 93.6831C48.6869 93.1431 48.6869 92.6676 48.6869 92.165C50.6734 92.165 52.6387 92.165 54.6348 92.165C54.6348 92.6576 54.6348 93.1328 54.6348 93.6518C53.9757 93.6518 53.3415 93.6518 52.6332 93.6518C52.6332 94.17 52.6332 94.6472 52.6332 95.1762Z" fill="#28252C"/>
<path d="M38.0549 95.2796C38.0549 95.9688 38.0549 96.606 38.0549 97.2984C39.1229 97.2984 40.1497 97.2984 41.2102 97.2984C41.2102 97.8282 41.2102 98.3027 41.2102 98.8067C39.527 98.8067 37.8555 98.8067 36.1453 98.8067C36.1453 96.6042 36.1453 94.4001 36.1453 92.1663C36.7625 92.1663 37.3772 92.1663 38.0549 92.1663C38.0549 93.1958 38.0549 94.2117 38.0549 95.2796Z" fill="#2A292E"/>
<path d="M55.3562 94.0315C55.3562 93.3935 55.3562 92.8076 55.3562 92.1799C55.989 92.1799 56.5982 92.1799 57.2377 92.1799C57.2377 94.3786 57.2377 96.5699 57.2377 98.8011C56.6343 98.8011 56.0242 98.8011 55.3562 98.8011C55.3562 97.2203 55.3562 95.6519 55.3562 94.0315Z" fill="#29282D"/>
<path d="M97.4036 95.8021C97.4136 95.8469 97.4237 95.8916 97.4108 95.972C97.388 96.0075 97.3498 96.0117 97.3498 96.0117C96.8867 95.9467 96.9165 96.2036 97.0599 96.5259C96.751 96.7054 96.4625 96.8731 96.08 97.0955C96.369 97.4903 96.6722 97.8926 96.9608 98.3052C97.062 98.4498 97.2314 98.7158 97.1901 98.7605C97.0417 98.9211 96.8283 99.0722 96.6176 99.1128C96.3172 99.1706 95.99 99.0842 95.6874 99.136C94.8009 99.2879 94.3056 98.8266 93.9433 98.1078C93.8781 97.9784 93.7724 97.8694 93.7321 97.8146C93.5761 98.0175 93.4766 98.1622 93.3601 98.2917C93.3063 98.3516 93.1706 98.3686 93.1549 98.4272C92.9401 99.2274 92.3123 99.1572 91.7048 99.1268C91.397 99.1114 91.0899 99.0822 90.7258 99.008C90.5766 98.6882 90.4145 98.4222 90.4044 98.1505C90.3708 97.2447 90.3842 96.3368 90.3952 95.4298C90.4002 95.0201 90.4942 94.6059 90.4561 94.2024C90.3765 93.3615 90.2524 92.5279 90.7038 91.7451C91.373 91.7795 92.0436 91.8561 92.7109 91.8345C93.2236 91.8178 93.7322 91.6773 94.2426 91.5918C94.2584 91.6369 94.2742 91.682 94.29 91.7271C94.1891 91.8021 94.0881 91.8771 93.9872 91.952C95.4399 91.8456 96.3771 92.4687 96.9264 93.9233C96.8984 93.9128 97.008 93.9536 97.102 93.9886C97.2532 94.3136 96.5302 94.7588 97.3286 94.9664C97.3888 94.9682 97.4304 94.9704 97.4304 94.9704C97.4293 95.1485 97.4281 95.3267 97.3913 95.5548C97.3717 95.6706 97.3876 95.7363 97.4036 95.8021ZM92.6165 97.163C93.2758 96.9195 93.5506 96.9946 93.9219 97.5281C94.1586 97.8684 94.3802 98.2198 94.6283 98.5514C94.7134 98.6653 94.8549 98.8061 94.9765 98.8118C95.5531 98.8391 96.1318 98.824 96.8341 98.824C96.3269 98.0623 95.8945 97.4127 95.4657 96.7687C96.6465 95.8515 96.9711 94.9476 96.58 93.768C96.2587 92.7988 95.2639 92.1744 93.98 92.157C93.0458 92.1444 92.1108 92.1716 91.1772 92.1445C90.7832 92.133 90.6783 92.2617 90.6823 92.6463C90.7018 94.5322 90.6924 96.4183 90.6964 98.3044C90.6967 98.4692 90.7195 98.6339 90.731 98.7874C91.3744 98.7874 91.9543 98.7874 92.5951 98.7874C92.5951 98.25 92.5951 97.7521 92.6165 97.163Z" fill="#E4F9FA"/>
<path d="M83.3215 98.8531C84.9261 98.7774 86.5381 98.8312 88.1316 98.6848C89.3137 98.5763 89.9276 97.6605 89.6328 96.5958C89.4977 96.1078 89.063 95.7027 88.7348 95.2163C89.1042 94.9374 89.3832 94.476 89.3716 93.8524C89.3605 93.2537 89.107 92.784 88.5831 92.5583C88.1031 92.3515 87.567 92.1962 87.0486 92.1726C85.841 92.1177 84.6291 92.1557 83.3709 92.1615C83.5479 92.0608 83.7677 91.8775 83.999 91.8616C84.9568 91.7961 85.9187 91.7456 86.8778 91.7634C87.3298 91.7717 87.7788 91.9468 88.2699 92.0509C88.3106 92.0553 88.3101 92.0549 88.3101 92.0549C88.528 92.1894 88.7459 92.324 89.027 92.4652C89.0902 92.4718 89.1421 92.472 89.1421 92.472C89.1421 92.472 89.1427 92.4714 89.1427 92.5089C89.2811 92.7298 89.4196 92.9131 89.5623 93.1342C89.5983 93.32 89.6302 93.4679 89.6618 93.6503C89.6617 93.7311 89.6618 93.7772 89.6619 93.8624C89.6621 93.9795 89.6622 94.0576 89.644 94.1627C89.5692 94.2759 89.5128 94.362 89.4557 94.4893C89.524 94.6766 89.593 94.8228 89.6624 94.9684C89.6628 94.9678 89.6616 94.9686 89.6581 95.0046C89.5586 95.1918 89.4625 95.3429 89.327 95.5561C89.5258 95.6451 89.6979 95.7222 89.8976 95.8221C89.8924 96.0687 89.8327 96.2924 89.8323 96.5162C89.831 97.1091 89.8553 97.702 89.8695 98.2949C89.6001 98.4056 89.3306 98.5159 89.0615 98.6272C88.6596 98.7935 88.2635 99.0863 87.8551 99.1044C86.4898 99.1651 85.1201 99.1345 83.7523 99.1176C83.6076 99.1158 83.4647 98.9738 83.3215 98.8531Z" fill="#E4F9FA"/>
<path d="M89.558 93.0963C89.4195 92.913 89.281 92.7297 89.1423 92.5093C89.9551 92.5224 89.9551 92.5224 89.9909 91.7183C90.2063 91.7086 90.4314 91.6984 90.6802 91.7166C90.2523 92.5278 90.3764 93.3614 90.456 94.2023C90.4942 94.6058 90.4001 95.02 90.3951 95.4297C90.3841 96.3366 90.3707 97.2445 90.4043 98.1503C90.4144 98.422 90.5765 98.6881 90.6858 98.9904C90.4381 99.0242 90.1735 99.0242 89.9275 99.0242C89.9275 98.7442 89.9275 98.5451 89.8984 98.3204C89.8553 97.702 89.831 97.109 89.8322 96.5162C89.8327 96.2924 89.8924 96.0687 89.8971 95.7825C89.8692 95.4882 89.8692 95.2563 89.8692 94.9902C89.8245 94.9856 89.743 94.977 89.6615 94.9685C89.6615 94.9685 89.6628 94.9678 89.6627 94.9271C89.5939 94.7403 89.5251 94.5942 89.4564 94.4481C89.5128 94.362 89.5692 94.2759 89.6788 94.1576C89.7086 94.0247 89.6853 93.924 89.6619 93.8233C89.6618 93.7772 89.6617 93.731 89.6993 93.6434C89.7606 93.437 89.7843 93.2721 89.808 93.1073C89.7247 93.1036 89.6414 93.0999 89.558 93.0963Z" fill="#FAF9FA"/>
<path d="M103.517 98.318C104.31 97.5389 104.858 96.6676 104.849 95.5042C104.836 93.7315 103.58 92.2796 101.819 92.0653C100.528 91.9082 99.3438 92.1494 98.326 93.0776C98.3283 92.9433 98.3184 92.7094 98.406 92.6643C98.9771 92.3695 99.5656 92.1068 100.157 91.8537C100.343 91.7738 100.555 91.7276 100.757 91.7149C101.148 91.6903 101.545 91.6664 101.933 91.7067C102.275 91.7423 102.609 91.8657 102.838 91.9233C103.139 92.1442 103.353 92.348 103.606 92.4753C103.857 92.6015 104.135 92.61 104.169 93.0126C104.186 93.2093 104.507 93.3617 104.598 93.5738C105.215 95.0054 105.137 96.4302 104.397 97.7859C104.253 98.0497 103.831 98.1619 103.517 98.318Z" fill="#D6F5F7"/>
<path d="M111.624 93.0079C111.651 92.8364 111.709 92.6612 111.766 92.488C110.799 92.1019 110.482 92.2013 109.833 92.9312C109.253 93.5846 108.631 94.2014 108.008 94.8153C107.795 95.0251 107.578 94.9883 107.562 94.6439C107.541 94.1703 107.555 93.695 107.554 93.2204C107.554 93.0306 107.563 92.8401 107.55 92.6512C107.544 92.5532 107.5 92.3747 107.47 92.3739C107.052 92.3627 106.628 92.3437 106.218 92.4071C106.119 92.4224 106.044 92.7251 105.997 92.9058C105.94 93.1294 105.924 93.3635 105.852 93.6056C105.814 93.1365 105.814 92.6549 105.814 92.0948C106.377 92.0948 106.928 92.0747 107.474 92.1134C107.572 92.1204 107.723 92.3677 107.729 92.5091C107.757 93.1575 107.742 93.8077 107.742 94.6149C108.004 94.432 108.151 94.3621 108.255 94.2521C108.837 93.6379 109.404 93.0098 109.988 92.3972C110.101 92.2781 110.261 92.133 110.406 92.1262C111.038 92.0966 111.672 92.1135 112.452 92.1135C112.123 92.4813 111.889 92.7428 111.624 93.0079Z" fill="#57AAB4"/>
<path d="M110.026 98.4703C110.662 98.512 111.307 98.5895 111.951 98.6671C111.977 98.6056 112.004 98.5441 112.03 98.4826C111.456 97.7505 110.88 97.0205 110.311 96.2855C110.052 95.9516 109.759 95.6304 109.579 95.2565C109.517 95.1267 109.722 94.8343 109.856 94.6547C109.973 94.4984 110.162 94.3964 110.358 94.2668C110.387 94.2964 110.385 94.3339 110.369 94.3619C110.192 94.6542 109.864 94.9519 109.877 95.2344C109.89 95.5198 110.234 95.7945 110.444 96.0654C111.033 96.8249 111.63 97.5785 112.218 98.3384C112.318 98.4677 112.392 98.6171 112.534 98.8491C111.752 98.8491 111.072 98.8661 110.394 98.8336C110.269 98.8276 110.153 98.6205 110.026 98.4703Z" fill="#57AAB4"/>
<path d="M97.4803 96.3936C98.3778 99.1067 101.353 99.4744 103.258 98.4185C103.005 98.8035 102.719 99.1543 102.145 99.1354C101.116 99.1017 100.083 99.1961 99.0839 98.8255C98.7571 98.7042 98.4692 98.5943 98.2961 98.2632C98.2343 98.1451 98.0718 98.0797 97.9178 97.9872C97.8802 97.984 97.8812 97.985 97.8812 97.985C97.8017 97.8103 97.7053 97.6411 97.6469 97.4597C97.5693 97.219 97.5214 96.9687 97.4621 96.6391C97.469 96.5017 97.4747 96.4476 97.4803 96.3936Z" fill="#D6F5F7"/>
<path d="M105.803 98.0272C105.873 98.0537 105.982 98.1263 105.982 98.1985C105.981 98.5652 106.198 98.6069 106.494 98.6131C107.496 98.634 107.525 98.5994 107.561 97.5937C107.575 97.1953 107.541 96.7306 108.153 96.6414C107.649 97.1167 107.716 97.7522 107.751 98.3671C107.772 98.7444 107.656 98.9077 107.258 98.8856C106.795 98.8598 106.328 98.8796 105.792 98.8796C105.792 98.5755 105.792 98.3244 105.803 98.0272Z" fill="#57AAB4"/>
<path d="M83.2751 92.2991C83.3077 94.3821 83.3125 96.4977 83.3097 98.6612C83.274 98.6485 83.221 98.5877 83.2212 98.5271C83.2268 96.4619 83.2375 94.3968 83.2751 92.2991Z" fill="#E4F9FA"/>
<path d="M108.227 96.6406C108.345 96.2814 108.585 96.4193 108.737 96.6107C109.156 97.1367 109.539 97.6916 109.935 98.2734C109.525 97.8345 109.124 97.3495 108.701 96.8852C108.593 96.7672 108.414 96.7148 108.227 96.6406Z" fill="#57AAB4"/>
<path d="M110.428 94.2598C110.389 94.2028 110.35 94.1015 110.381 94.0734C110.737 93.7388 111.105 93.4152 111.503 93.084C111.178 93.4693 110.819 93.8593 110.428 94.2598Z" fill="#57AAB4"/>
<path d="M98.2541 93.0969C98.0383 93.5671 97.7857 94.0413 97.5013 94.536C97.4694 94.5565 97.4551 94.5431 97.4579 94.5097C97.4613 94.4315 97.4619 94.3868 97.4626 94.3421C97.5024 93.7997 97.6398 93.3165 98.2541 93.0969Z" fill="#D6F5F7"/>
<path d="M88.3109 92.0554C88.2355 91.9393 88.1598 91.8229 88.0684 91.6821C88.2575 91.6821 88.4634 91.6821 88.8462 91.6821C88.6137 91.87 88.5006 91.9613 88.3488 92.0537C88.3101 92.0547 88.3106 92.0552 88.3109 92.0554Z" fill="#E4F9FA"/>
<path d="M95.1052 91.8314C95.1855 91.7397 95.3004 91.6568 95.4153 91.574C95.4412 91.627 95.4672 91.6801 95.4931 91.7332C95.3754 91.7688 95.2577 91.8045 95.1052 91.8314Z" fill="#E4F9FA"/>
<path d="M97.481 96.3741C97.4747 96.4475 97.469 96.5016 97.4608 96.5963C97.4083 96.5448 97.3583 96.4526 97.361 96.3398C97.4311 96.3193 97.4485 96.3193 97.4659 96.3193C97.4659 96.3193 97.4817 96.3547 97.481 96.3741Z" fill="#E4F9FA"/>
<path d="M97.4433 94.9317C97.4304 94.9703 97.3888 94.9681 97.368 94.9657C97.3511 94.8536 97.3551 94.744 97.3836 94.592C97.4081 94.5495 97.4551 94.543 97.4551 94.543C97.4551 94.543 97.4694 94.5565 97.4767 94.5631C97.4748 94.6776 97.4656 94.7853 97.4433 94.9317Z" fill="#D6F5F7"/>
<path d="M97.4579 94.5096C97.4551 94.543 97.4081 94.5496 97.3843 94.5508C97.3745 94.4846 97.3883 94.4172 97.4324 94.3459C97.4619 94.3868 97.4613 94.4315 97.4579 94.5096Z" fill="#E4F9FA"/>
<path d="M97.881 98.1915C97.827 98.1674 97.773 98.1433 97.7191 98.1193C97.7524 98.0771 97.7857 98.0349 97.8501 97.989C97.8812 97.9853 97.8802 97.9844 97.8798 97.9839C97.8791 98.03 97.8789 98.0766 97.8795 98.1578C97.8802 98.1924 97.881 98.1915 97.881 98.1915Z" fill="#D6F5F7"/>
<path d="M97.4681 96.2795C97.4485 96.3194 97.4312 96.3194 97.3877 96.3196C97.3598 96.2426 97.3579 96.1654 97.3529 96.0498C97.3498 96.0113 97.388 96.0072 97.4071 96.0061C97.4409 96.0832 97.4556 96.1614 97.4681 96.2795Z" fill="#D6F5F7"/>
<path d="M109.936 98.3324C109.96 98.3268 109.99 98.3489 110.022 98.3998C109.996 98.4059 109.969 98.3829 109.936 98.3324Z" fill="#57AAB4"/>
<path d="M89.1317 92.4541C89.1403 92.4715 89.0896 92.4713 89.0642 92.4708C89.0669 92.4592 89.095 92.448 89.1317 92.4541Z" fill="#FAF9FA"/>
<path d="M97.8797 98.1925C97.8916 98.2067 97.9039 98.2205 97.9162 98.2343C97.9079 98.2292 97.8997 98.2241 97.8861 98.2051C97.8809 98.1913 97.8802 98.1922 97.8797 98.1925Z" fill="#D6F5F7"/>
<path d="M95.7527 91.7915C95.7502 91.7873 95.7551 91.7957 95.7527 91.7915V91.7915Z" fill="#E4F9FA"/>
<path d="M52.832 37.3369C52.8295 37.3573 52.83 37.3792 52.8305 37.4012C52.8207 37.3864 52.8108 37.3717 52.8208 37.3496C52.8406 37.3424 52.835 37.3385 52.832 37.3369Z" fill="#28252C"/>
<path d="M86.7093 94.7677C86.2006 94.7709 85.739 94.7709 85.2367 94.7709C85.2367 94.3492 85.2367 93.9668 85.2367 93.5223C85.7497 93.5223 86.2445 93.4983 86.7357 93.5303C87.0916 93.5535 87.4452 93.6831 87.4578 94.1192C87.4708 94.5671 87.1774 94.7522 86.7093 94.7677Z" fill="#E4F9FA"/>
<path d="M85.2246 97.2513C85.2199 97.2045 85.2152 97.1578 85.2395 97.0491C85.4086 96.3508 85.561 96.2099 86.1902 96.2221C86.5124 96.2284 86.8463 96.2535 87.1497 96.3498C87.3115 96.4011 87.5225 96.6211 87.5237 96.7663C87.5248 96.9212 87.3146 97.2015 87.1792 97.2125C86.5309 97.2653 85.8767 97.2454 85.2246 97.2513Z" fill="#F3FCFC"/>
<path d="M85.2195 97.2943C85.8767 97.2455 86.5309 97.2654 87.1792 97.2126C87.3146 97.2016 87.5248 96.9213 87.5236 96.7664C87.5225 96.6211 87.3115 96.4012 87.1497 96.3498C86.8463 96.2536 86.5124 96.2285 86.1902 96.2222C85.561 96.21 85.4086 96.3509 85.2465 97.0145C85.2245 96.7526 85.2245 96.4636 85.2245 96.1393C85.8879 96.1393 86.5237 96.1165 87.1567 96.1481C87.5188 96.1662 87.7791 96.3824 87.7852 96.7805C87.7913 97.181 87.5308 97.414 87.1724 97.42C86.5204 97.431 85.8672 97.3689 85.2195 97.2943Z" fill="#D6F5F7"/>
<path d="M30.3886 93.9257C31.2352 93.4461 32.0759 93.5102 32.6646 94.0765C33.2104 94.6016 33.3762 95.6531 33.0296 96.3918C32.6994 97.0957 31.9749 97.4674 31.1414 97.3606C29.7934 97.1878 29.1607 95.4352 30.0318 94.2773C30.1238 94.155 30.2465 94.0558 30.3886 93.9257Z" fill="#FAF9FA"/>
<path d="M62.346 97.3513C61.2311 97.4245 60.5553 97.0118 60.2829 96.1241C60.0145 95.2493 60.3269 94.2815 61.011 93.8682C61.8847 93.3405 63.0234 93.6091 63.505 94.4565C64.0395 95.397 63.7431 96.6594 62.8667 97.1472C62.7173 97.2304 62.5491 97.28 62.346 97.3513Z" fill="#FAF9FA"/>
<path d="M121.46 93.6626C121.947 93.6678 122.395 93.6694 122.837 93.7192C123.341 93.776 123.534 94.1615 123.549 94.5974C123.564 95.0424 123.367 95.4266 122.87 95.4985C122.382 95.5691 121.885 95.5825 121.267 95.6308C121.322 94.9208 121.37 94.3005 121.46 93.6626Z" fill="#E4F9FA"/>
<path d="M102.791 96.2116C102.409 97.0777 101.776 97.4479 100.877 97.3606C100.145 97.2894 99.5429 96.7146 99.3682 95.9193C99.1916 95.1149 99.5596 94.2181 100.217 93.8514C100.954 93.4401 101.777 93.522 102.369 94.1053C102.963 94.6896 103.013 95.4095 102.791 96.2116Z" fill="#F3FCFC"/>
<path d="M97.4169 95.7674C97.3876 95.7363 97.3716 95.6705 97.3787 95.5974C97.4112 95.6376 97.4207 95.6852 97.4169 95.7674Z" fill="#D6F5F7"/>
<path d="M92.6057 97.2083C92.595 97.7518 92.595 98.2498 92.595 98.7872C91.9542 98.7872 91.3744 98.7872 90.7309 98.7872C90.7194 98.6337 90.6966 98.4689 90.6963 98.3041C90.6924 96.4181 90.7018 94.5319 90.6823 92.6461C90.6783 92.2614 90.7831 92.1328 91.1771 92.1442C92.1107 92.1714 93.0457 92.1441 93.9799 92.1568C95.2639 92.1741 96.2587 92.7985 96.58 93.7677C96.971 94.9474 96.6465 95.8512 95.4656 96.7684C95.8944 97.4125 96.3269 98.062 96.834 98.8238C96.1317 98.8238 95.5531 98.8389 94.9765 98.8116C94.8549 98.8058 94.7134 98.665 94.6282 98.5512C94.3801 98.2195 94.1586 97.8681 93.9218 97.5279C93.5505 96.9943 93.2758 96.9193 92.6057 97.2083ZM94.3423 95.4037C94.7927 95.221 94.8465 94.8193 94.7479 94.4501C94.6778 94.1876 94.4578 93.833 94.2343 93.7703C93.7227 93.6266 93.168 93.6366 92.6207 93.5831C92.6207 94.3253 92.6207 94.9387 92.6207 95.6799C93.2062 95.5836 93.733 95.4969 94.2461 95.3912C94.2461 95.3912 94.2654 95.4044 94.3423 95.4037Z" fill="#38ABB8"/>
<path d="M89.6582 95.0045C89.7431 94.9769 89.8245 94.9854 89.8693 94.9901C89.8693 95.2561 89.8693 95.4881 89.8697 95.7595C89.698 95.722 89.5258 95.6449 89.327 95.5559C89.4626 95.3427 89.5587 95.1916 89.6582 95.0045Z" fill="white"/>
<path d="M89.5623 93.1342C89.6414 93.0999 89.7247 93.1036 89.808 93.1073C89.7843 93.2721 89.7607 93.437 89.6995 93.6087C89.6302 93.4678 89.5983 93.32 89.5623 93.1342Z" fill="white"/>
<path d="M89.4557 94.4895C89.5252 94.5945 89.5939 94.7406 89.6624 94.9279C89.5931 94.823 89.5241 94.6768 89.4557 94.4895Z" fill="white"/>
<path d="M89.662 93.8623C89.6853 93.9239 89.7087 94.0246 89.6972 94.1304C89.6622 94.0575 89.6621 93.9794 89.662 93.8623Z" fill="white"/>
<path d="M94.2598 95.4103C93.733 95.497 93.2062 95.5837 92.6207 95.68C92.6207 94.9388 92.6207 94.3255 92.6207 93.5833C93.168 93.6367 93.7227 93.6267 94.2343 93.7704C94.4578 93.8331 94.6778 94.1877 94.7479 94.4502C94.8465 94.8194 94.7926 95.2211 94.2981 95.3658C94.3857 95.0966 94.6193 94.8652 94.6189 94.6343C94.6185 94.4266 94.4062 94.1347 94.208 94.0292C93.7633 93.7926 93.2628 93.6871 92.7795 93.9567C92.7252 93.987 92.7387 94.1684 92.7477 94.2775C92.7768 94.6303 92.8185 94.9821 92.8573 95.3533C92.9797 95.3933 93.1097 95.472 93.2394 95.4713C93.5796 95.4694 93.9197 95.433 94.2598 95.4103Z" fill="#D6F5F7"/>
<path d="M94.253 95.401C93.9197 95.4332 93.5797 95.4697 93.2394 95.4715C93.1098 95.4722 92.9797 95.3935 92.8573 95.3535C92.8185 94.9823 92.7769 94.6305 92.7478 94.2777C92.7388 94.1686 92.7252 93.9872 92.7796 93.9569C93.2629 93.6873 93.7634 93.7928 94.208 94.0294C94.4063 94.1349 94.6185 94.4268 94.6189 94.6345C94.6194 94.8654 94.3857 95.0968 94.2597 95.3663C94.2655 95.4047 94.2462 95.3916 94.253 95.401Z" fill="#F3FCFC"/>
</svg>
