<svg width="68" height="68" viewBox="0 0 68 68" fill="none" xmlns="http://www.w3.org/2000/svg">
<path d="M55.1106 21.166L47.9026 13.958C47.7541 13.8083 47.5667 13.7029 47.3616 13.6539C47.1565 13.6048 46.9418 13.6139 46.7416 13.6802C46.5414 13.7465 46.3637 13.8674 46.2284 14.0292C46.0931 14.191 46.0057 14.3873 45.9759 14.5961C45.8568 15.4294 45.5079 16.2131 44.9684 16.8594C44.4289 17.5057 43.7201 17.9889 42.9215 18.2551C42.1228 18.5212 41.2659 18.5598 40.4465 18.3663C39.6272 18.1729 38.878 17.7551 38.2827 17.1598C37.6874 16.5646 37.2697 15.8153 37.0762 14.996C36.8828 14.1767 36.9213 13.3197 37.1874 12.521C37.4536 11.7224 37.9369 11.0136 38.5831 10.4741C39.2294 9.93467 40.0131 9.58579 40.8465 9.46661C41.0552 9.43684 41.2516 9.3494 41.4134 9.21413C41.5752 9.07886 41.696 8.90114 41.7623 8.70094C41.8286 8.50073 41.8377 8.28601 41.7887 8.0809C41.7396 7.8758 41.6343 7.68845 41.4845 7.53995L34.2765 0.331947C34.064 0.119479 33.7758 0.00012207 33.4753 0.00012207C33.1747 0.00012207 32.8865 0.119479 32.674 0.331947L26.4146 6.58908C26.1064 5.43556 25.4999 4.38352 24.6561 3.53876C23.8123 2.694 22.761 2.08631 21.6078 1.77679C20.4546 1.46727 19.2403 1.46684 18.0869 1.77554C16.9335 2.08424 15.8818 2.69119 15.0374 3.53535C14.193 4.37951 13.5857 5.43112 13.2767 6.58443C12.9677 7.73773 12.9678 8.95207 13.277 10.1053C13.5862 11.2586 14.1936 12.3101 15.0382 13.1541C15.8827 13.9981 16.9346 14.6049 18.088 14.9134L11.8354 21.166C11.6229 21.3785 11.5036 21.6668 11.5036 21.9673C11.5036 22.2678 11.6229 22.556 11.8354 22.7685L18.0903 29.0313C16.7172 29.4002 15.4943 30.1902 14.5935 31.2901C13.6927 32.3901 13.1593 33.7447 13.0683 35.1636C12.9774 36.5824 13.3335 37.9941 14.0865 39.2001C14.8395 40.406 15.9516 41.3456 17.2663 41.8867L14.62 49.5197C14.2684 50.3118 14.1032 51.1738 14.137 52.0397C14.1708 52.9056 14.4027 53.7521 14.8149 54.5143L18.7929 63.921C18.8076 63.9572 18.8247 63.9924 18.8439 64.0264C19.1225 64.537 19.2679 65.1096 19.2667 65.6913V66.7793C19.2667 67.0799 19.3861 67.3681 19.5986 67.5807C19.8111 67.7932 20.0994 67.9126 20.4 67.9126C20.7006 67.9126 20.9888 67.7932 21.2014 67.5807C21.4139 67.3681 21.5333 67.0799 21.5333 66.7793V65.6913C21.5321 64.7485 21.2986 63.8205 20.8533 62.9894L16.8742 53.5827C16.8584 53.5439 16.8402 53.506 16.8198 53.4694C16.56 52.9953 16.4157 52.4667 16.3983 51.9264C16.381 51.3861 16.4912 50.8493 16.7201 50.3595L19.4922 42.3809C19.6112 42.3809 19.7279 42.3979 19.8481 42.3979C21.3439 42.3992 22.7982 41.9064 23.9851 40.996C25.1719 40.0856 26.0248 38.8087 26.4112 37.3636L28.3333 39.2778V50.9126C28.3333 51.2132 28.4527 51.5015 28.6653 51.714C28.8778 51.9265 29.1661 52.0459 29.4667 52.0459C29.7672 52.0459 30.0555 51.9265 30.2681 51.714C30.4806 51.5015 30.6 51.2132 30.6 50.9126V35.0459C30.6 34.1442 30.9582 33.2794 31.5958 32.6418C32.2335 32.0042 33.0983 31.6459 34 31.6459C34.9017 31.6459 35.7665 32.0042 36.4042 32.6418C37.0418 33.2794 37.4 34.1442 37.4 35.0459V48.7717C37.402 50.355 37.7705 51.9163 38.4767 53.3334L38.8915 54.1653C39.4399 55.2674 39.7253 56.4816 39.7253 57.7126C39.7253 58.9436 39.4399 60.1578 38.8915 61.2599L37.7581 63.5266C37.5228 63.9991 37.4003 64.5197 37.4 65.0475V66.7793C37.4 67.0799 37.5194 67.3681 37.7319 67.5807C37.9445 67.7932 38.2327 67.9126 38.5333 67.9126C38.8339 67.9126 39.1222 67.7932 39.3347 67.5807C39.5473 67.3681 39.6667 67.0799 39.6667 66.7793V65.0475C39.6655 64.8723 39.7043 64.699 39.78 64.5409L40.9133 62.2743C41.6183 60.8572 41.9851 59.2959 41.9851 57.7132C41.9851 56.1304 41.6183 54.5692 40.9133 53.1521L40.4985 52.3202C40.0922 51.5041 39.8288 50.6244 39.7199 49.7192C40.456 50.4579 41.3309 51.0438 42.2943 51.4431C43.2576 51.8425 44.2905 52.0473 45.3333 52.0459C46.2351 52.0459 47.0999 51.6877 47.7375 51.0501C48.3751 50.4125 48.7333 49.5477 48.7333 48.6459V42.1859C50.1961 41.824 51.497 40.986 52.4313 39.8038C53.3657 38.6215 53.8804 37.1622 53.8946 35.6554C53.9087 34.1486 53.4215 32.6798 52.5095 31.4803C51.5975 30.2807 50.3126 29.4184 48.8569 29.0291L55.1106 22.7663C55.3224 22.5538 55.4413 22.2661 55.4413 21.9661C55.4413 21.6662 55.3224 21.3785 55.1106 21.166ZM45.3333 49.7793C43.831 49.7775 42.3907 49.1799 41.3284 48.1176C40.2661 47.0552 39.6685 45.615 39.6667 44.1126V38.2193L40.5325 37.3534C40.8897 38.6955 41.6503 39.8957 42.7116 40.7915C43.7729 41.6874 45.0836 42.2359 46.4667 42.3627V48.6459C46.4667 48.9465 46.3473 49.2348 46.1347 49.4473C45.9222 49.6599 45.6339 49.7793 45.3333 49.7793ZM45.4954 29.19C45.3253 29.3582 45.2128 29.5758 45.1739 29.8118C45.135 30.0477 45.1718 30.29 45.279 30.5038C45.3861 30.7176 45.5582 30.892 45.7705 31.0021C45.9828 31.1122 46.2245 31.1523 46.461 31.1167C47.4026 30.9834 48.3622 31.1496 49.2041 31.5918C50.046 32.034 50.7276 32.7297 51.1523 33.5806C51.5771 34.4314 51.7235 35.3943 51.5708 36.3329C51.4182 37.2715 50.9742 38.1384 50.3018 38.8108C49.6294 39.4833 48.7625 39.9272 47.8239 40.0798C46.8852 40.2325 45.9224 40.0861 45.0715 39.6613C44.2207 39.2366 43.525 38.5551 43.0828 37.7132C42.6406 36.8712 42.4744 35.9116 42.6077 34.97C42.6433 34.7335 42.6032 34.4918 42.4931 34.2795C42.383 34.0672 42.2086 33.8951 41.9948 33.788C41.781 33.6808 41.5387 33.644 41.3027 33.6829C41.0668 33.7218 40.8491 33.8343 40.681 34.0044L39.6667 35.021C39.665 34.2769 39.5168 33.5403 39.2305 32.8534C38.9443 32.1665 38.5255 31.5428 37.9981 31.0177C37.4708 30.4927 36.8452 30.0767 36.157 29.7934C35.4689 29.5101 34.7317 29.3652 33.9875 29.3668C33.2434 29.3685 32.5068 29.5166 31.8199 29.8029C31.1331 30.0892 30.5093 30.508 29.9842 31.0354C28.9239 32.1004 28.33 33.5431 28.3333 35.0459V36.0727L26.2559 33.9953C26.0878 33.8253 25.8702 33.7127 25.6342 33.6739C25.3982 33.635 25.156 33.6718 24.9422 33.7789C24.7283 33.8861 24.5539 34.0581 24.4438 34.2704C24.3337 34.4827 24.2936 34.7245 24.3293 34.9609C24.4625 35.9025 24.2963 36.8622 23.8541 37.7041C23.412 38.546 22.7162 39.2275 21.8654 39.6523C21.0145 40.077 20.0517 40.2234 19.113 40.0708C18.1744 39.9181 17.3075 39.4742 16.6351 38.8018C15.9627 38.1293 15.5187 37.2625 15.3661 36.3238C15.2135 35.3852 15.3599 34.4223 15.7846 33.5715C16.2093 32.7206 16.8909 32.0249 17.7328 31.5827C18.5747 31.1406 19.5343 30.9744 20.4759 31.1076C20.7125 31.1435 20.9544 31.1037 21.1669 30.9937C21.3795 30.8837 21.5517 30.7093 21.6591 30.4954C21.7664 30.2815 21.8032 30.0391 21.7644 29.803C21.7255 29.5669 21.6129 29.3491 21.4427 29.1809L14.2381 21.9673L21.4506 14.7593C21.6207 14.5911 21.7332 14.3735 21.7721 14.1375C21.811 13.9015 21.7742 13.6593 21.667 13.4455C21.5599 13.2317 21.3878 13.0573 21.1755 12.9472C20.9632 12.8371 20.7215 12.797 20.485 12.8326C19.5447 12.964 18.5868 12.7969 17.7465 12.3548C16.9063 11.9126 16.226 11.2178 15.8018 10.3684C15.3776 9.51893 15.2308 8.55773 15.3821 7.62038C15.5335 6.68304 15.9753 5.81687 16.6453 5.14408C17.5093 4.32094 18.6569 3.86179 19.8503 3.86179C21.0437 3.86179 22.1913 4.32094 23.0554 5.14408C23.5514 5.64134 23.925 6.24703 24.1468 6.91338C24.3687 7.57972 24.4327 8.2885 24.3338 8.98381C24.2982 9.22031 24.3383 9.46201 24.4484 9.67433C24.5584 9.88664 24.7329 10.0587 24.9467 10.1659C25.1605 10.273 25.4027 10.3098 25.6387 10.2709C25.8747 10.232 26.0923 10.1195 26.2605 9.94941L33.4787 2.73915L38.5571 7.81875C37.5755 8.28758 36.7206 8.98509 36.0644 9.85272C35.4081 10.7203 34.9696 11.7328 34.7856 12.805C34.6017 13.8772 34.6776 14.9779 35.0071 16.0146C35.3367 17.0514 35.9101 17.9939 36.6794 18.7632C37.4486 19.5324 38.3912 20.1059 39.4279 20.4354C40.4647 20.7649 41.5654 20.8409 42.6376 20.6569C43.7098 20.473 44.7222 20.0344 45.5898 19.3782C46.4575 18.7219 47.155 17.8671 47.6238 16.8854L52.7034 21.9639L45.4954 29.19Z" fill="white"/>
<path d="M66.8667 23.7126H60.0667C59.7661 23.7126 59.4778 23.5932 59.2653 23.3806C59.0527 23.1681 58.9333 22.8798 58.9333 22.5793C58.9333 22.2787 59.0527 21.9904 59.2653 21.7779C59.4778 21.5653 59.7661 21.4459 60.0667 21.4459H66.8667C67.1672 21.4459 67.4555 21.5653 67.6681 21.7779C67.8806 21.9904 68 22.2787 68 22.5793C68 22.8798 67.8806 23.1681 67.6681 23.3806C67.4555 23.5932 67.1672 23.7126 66.8667 23.7126Z" fill="white"/>
<path d="M58.8416 10.6793C58.5921 10.6793 58.3496 10.5969 58.1517 10.4451C57.9537 10.2932 57.8115 10.0802 57.7469 9.83927C57.6823 9.59829 57.6991 9.34274 57.7945 9.11225C57.89 8.88177 58.0588 8.68922 58.2749 8.56447L64.1682 5.16447C64.4284 5.01655 64.7365 4.97754 65.0253 5.05595C65.3141 5.13437 65.5602 5.32384 65.7099 5.58301C65.8595 5.84219 65.9006 6.15004 65.8241 6.43938C65.7476 6.72871 65.5597 6.97604 65.3016 7.1274L59.4082 10.5274C59.2361 10.6273 59.0406 10.6797 58.8416 10.6793Z" fill="white"/>
<path d="M64.7292 40.1459C64.5302 40.1463 64.3347 40.0939 64.1625 39.994L58.2692 36.594C58.1393 36.5202 58.0252 36.4213 57.9337 36.3032C57.8421 36.1851 57.7748 36.05 57.7356 35.9057C57.6965 35.7615 57.6862 35.6109 57.7055 35.4627C57.7247 35.3145 57.7731 35.1716 57.8479 35.0421C57.9226 34.9127 58.0222 34.7993 58.1409 34.7085C58.2597 34.6177 58.3952 34.5513 58.5397 34.5131C58.6842 34.4749 58.8348 34.4657 58.9829 34.4859C59.131 34.5062 59.2736 34.5555 59.4025 34.6311L65.2959 38.0311C65.5119 38.1558 65.6808 38.3484 65.7762 38.5789C65.8717 38.8094 65.8884 39.0649 65.8239 39.3059C65.7593 39.5469 65.617 39.7598 65.4191 39.9117C65.2212 40.0636 64.9787 40.1459 64.7292 40.1459Z" fill="white"/>
<path d="M7.93333 23.7126H1.13333C0.832755 23.7126 0.544487 23.5932 0.331946 23.3806C0.119404 23.1681 0 22.8798 0 22.5793C0 22.2787 0.119404 21.9904 0.331946 21.7779C0.544487 21.5653 0.832755 21.4459 1.13333 21.4459H7.93333C8.23391 21.4459 8.52218 21.5653 8.73472 21.7779C8.94726 21.9904 9.06667 22.2787 9.06667 22.5793C9.06667 22.8798 8.94726 23.1681 8.73472 23.3806C8.52218 23.5932 8.23391 23.7126 7.93333 23.7126Z" fill="white"/>
<path d="M9.15843 10.6793C8.95943 10.6797 8.76389 10.6273 8.59177 10.5274L2.69843 7.1274C2.44025 6.97604 2.25242 6.72871 2.17592 6.43938C2.09943 6.15004 2.14048 5.84219 2.29012 5.58301C2.43976 5.32384 2.68585 5.13437 2.97467 5.05595C3.26349 4.97754 3.5716 5.01655 3.83177 5.16447L9.7251 8.56447C9.94115 8.68922 10.11 8.88177 10.2055 9.11225C10.3009 9.34274 10.3177 9.59829 10.2531 9.83927C10.1885 10.0802 10.0463 10.2932 9.84833 10.4451C9.65041 10.5969 9.40791 10.6793 9.15843 10.6793Z" fill="white"/>
<path d="M3.2708 40.1459C3.02132 40.1459 2.77882 40.0636 2.5809 39.9117C2.38298 39.7598 2.2407 39.5469 2.17613 39.3059C2.11156 39.0649 2.12831 38.8094 2.22377 38.5789C2.31923 38.3484 2.48808 38.1558 2.70413 38.0311L8.59746 34.6311C8.7264 34.5555 8.86902 34.5062 9.01711 34.4859C9.16519 34.4657 9.31582 34.4749 9.46032 34.5131C9.60482 34.5513 9.74034 34.6177 9.85907 34.7085C9.9778 34.7993 10.0774 34.9127 10.1521 35.0421C10.2269 35.1716 10.2753 35.3145 10.2945 35.4627C10.3138 35.6109 10.3035 35.7615 10.2644 35.9057C10.2252 36.05 10.1579 36.1851 10.0663 36.3032C9.97476 36.4213 9.86073 36.5202 9.7308 36.594L3.83746 39.994C3.66534 40.0939 3.4698 40.1463 3.2708 40.1459Z" fill="white"/>
</svg>
