<svg width="66" height="55" viewBox="0 0 66 55" fill="none" xmlns="http://www.w3.org/2000/svg">
<mask id="path-1-inside-1_54_102" fill="white">
<path d="M63.9479 33.7169L61.6742 31.4497C60.8654 30.6419 59.7874 30.1969 58.6388 30.1969C57.9044 30.1969 57.1993 30.3796 56.5745 30.722L52.29 26.4426L52.4987 26.2341C54.2368 24.4925 54.2362 21.6625 52.4985 19.9267C51.8776 19.3046 51.1027 18.8898 50.2581 18.7152C50.3744 18.3138 50.4356 17.8933 50.4356 17.463C50.4356 16.2675 49.9712 15.1465 49.1306 14.3093C48.5095 13.6871 47.7348 13.2723 46.8902 13.0977C47.0065 12.6963 47.0677 12.276 47.0677 11.8456C47.0677 10.6499 46.6033 9.52902 45.7612 8.69054C45.1253 8.05539 44.3436 7.65334 43.5227 7.48222C43.9618 5.9682 43.5866 4.2648 42.3955 3.07168C41.4041 2.08445 40.0588 1.66016 38.7623 1.79767L30.2721 0.190624C28.9772 -0.0550021 27.3602 -0.217432 26.3395 0.71357C26.2751 0.772357 26.2094 0.839962 26.1447 0.915234C24.5621 0.338358 22.7162 0.681876 21.4488 1.94783C20.6081 2.78759 20.1449 3.90811 20.1449 5.10302C20.1449 5.53344 20.2059 5.95376 20.322 6.3553C19.4783 6.52974 18.7045 6.94406 18.0856 7.56413C17.2432 8.40312 16.7786 9.52237 16.7777 10.7159C16.7773 11.1473 16.8385 11.569 16.9554 11.9716C16.1113 12.1457 15.3369 12.5592 14.7161 13.1793C13.8737 14.0208 13.4098 15.142 13.4098 16.3363C13.4098 17.251 13.6829 18.1225 14.1889 18.8586C13.5499 19.0752 12.9646 19.4357 12.4745 19.9253C10.7352 21.6625 10.7346 24.4927 12.4757 26.2368L12.6836 26.4439L8.39857 30.7211C6.80609 29.9713 4.84402 30.2522 3.52988 31.5647L1.25484 33.8333C0.445629 34.6415 0.000127797 35.7196 0 36.8689C0 38.0183 0.445629 39.0965 1.25484 39.9049L4.09411 42.7407C4.59699 43.243 5.41195 43.2425 5.91419 42.7397C6.41656 42.2368 6.41605 41.4218 5.91317 40.9196L3.0739 38.0837C2.7516 37.7618 2.57409 37.3304 2.57409 36.869C2.57409 36.4078 2.7516 35.9765 3.07314 35.6553L5.34831 33.3866C5.91675 32.8188 6.78679 32.7342 7.4475 33.1292C7.49402 33.1991 7.54783 33.2655 7.60942 33.3273C7.71971 33.4378 7.84559 33.5225 7.97927 33.5845L21.0265 46.6125C21.0884 46.7476 21.1736 46.8748 21.2846 46.986C21.3927 47.0942 21.5161 47.1779 21.6469 47.2395C21.9228 47.5515 22.0753 47.9499 22.0753 48.375C22.0753 48.8363 21.8978 49.2677 21.5755 49.5896L19.3026 51.8598C18.631 52.5284 17.5386 52.5283 16.8691 51.8618L14.0298 49.0223C13.5272 48.5197 12.7124 48.5197 12.2097 49.0223C11.7071 49.5249 11.7071 50.3397 12.2097 50.8424L15.051 53.6839C15.8874 54.5168 16.9856 54.933 18.0844 54.933C19.1835 54.933 20.2831 54.5162 21.1204 53.6825L23.3947 51.4109C24.2039 50.6026 24.6495 49.5245 24.6495 48.375C24.6495 47.5547 24.4214 46.7713 23.9972 46.0957L28.8198 41.2791C28.8249 41.2738 28.83 41.2686 28.8352 41.2633C29.3875 40.6925 30.9252 40.7993 32.4124 40.9026C33.469 40.9761 34.6471 41.0577 35.798 40.9251L41.0791 46.1999C40.737 46.8237 40.5544 47.5278 40.5544 48.2611C40.5544 49.4094 41 50.4868 41.8092 51.2952L44.0836 53.5667C44.8923 54.3746 45.9703 54.8195 47.1189 54.8195C48.2674 54.8195 49.3454 54.3747 50.1542 53.5667L63.9488 39.7889C64.758 38.9808 65.2036 37.9027 65.2036 36.7533C65.2035 35.604 64.7579 34.5259 63.9479 33.7169ZM29.7928 2.71973L35.3759 3.77648L32.0341 7.11697C31.5172 6.86854 30.8087 6.40514 30.0314 5.66162C28.9675 4.64384 28.2065 3.46875 28.1372 2.73583C28.1371 2.73545 28.1371 2.73507 28.1371 2.73468C28.1371 2.73455 28.137 2.73443 28.137 2.7343C28.132 2.68165 28.1307 2.6396 28.1313 2.60752C28.2996 2.56663 28.7467 2.52126 29.7928 2.71973ZM23.2678 3.76907C23.9198 3.11769 24.9327 3.04254 25.6695 3.54146C26.087 5.29203 27.5803 6.87863 28.2521 7.52145C28.75 7.99788 30.3476 9.42627 31.9601 9.81886C32.1783 10.1316 32.297 10.5044 32.297 10.8977C32.297 11.4044 32.1021 11.8782 31.747 12.2329C31.3929 12.5877 30.9183 12.783 30.4107 12.783C29.903 12.783 29.4285 12.5877 29.0727 12.2313L29.0726 12.2312L29.0719 12.2305L23.2676 6.43671C22.9138 6.08335 22.7189 5.60961 22.7189 5.10302C22.719 4.5963 22.9139 4.12256 23.2678 3.76907ZM19.9047 9.38537C20.2588 9.03073 20.7328 8.83533 21.2396 8.83533C21.7471 8.83533 22.2226 9.03112 22.5791 9.38716L27.2529 14.0516C27.9888 14.7888 27.9888 15.9883 27.2554 16.7228C26.8994 17.0775 26.4232 17.2728 25.9147 17.2728C25.4062 17.2728 24.93 17.0775 24.5755 16.7244L24.5754 16.7242L21.0297 13.1793C21.0242 13.1738 21.0182 13.1687 21.0125 13.1631L19.9032 12.0543C19.5473 11.6988 19.3514 11.2241 19.3518 10.7178C19.3523 10.2131 19.5476 9.7409 19.9047 9.38537ZM16.5352 15.0005C16.8895 14.6467 17.3646 14.4518 17.8729 14.4518C18.3771 14.4518 18.848 14.6438 19.2009 14.9916L22.7575 18.5465C23.1121 18.8997 23.3075 19.373 23.3075 19.879C23.3075 20.385 23.1121 20.8582 22.7561 21.2129C22.4018 21.5666 21.9273 21.7615 21.4198 21.7615C20.9116 21.7615 20.4355 21.5661 20.0808 21.2129L18.7914 19.9251C18.7912 19.9247 18.7908 19.9244 18.7905 19.9242L16.5353 17.6716C16.1798 17.3165 15.984 16.8421 15.984 16.336C15.984 15.8301 16.1798 15.3555 16.5352 15.0005ZM14.2936 21.7464C14.6495 21.3909 15.1252 21.1951 15.6329 21.1951C16.1405 21.1951 16.6161 21.3908 16.9718 21.746L18.263 23.0356C18.6177 23.3889 18.813 23.8621 18.813 24.3682C18.813 24.8743 18.6176 25.3474 18.2603 25.7034C17.9062 26.058 17.4317 26.2534 16.924 26.2534C16.4163 26.2534 15.9418 26.0582 15.5851 25.7008L15.4235 25.5398C15.4213 25.5376 15.4196 25.5353 15.4176 25.5333C15.4151 25.531 15.4126 25.529 15.4102 25.5267L14.2949 24.4157C13.5589 23.6782 13.5583 22.4809 14.2936 21.7464ZM40.5219 36.3738C40.0195 35.8708 39.2046 35.8704 38.7018 36.3727L37.5568 37.5163C36.4687 38.6044 34.4972 38.4674 32.5906 38.3351C30.5201 38.1912 28.3791 38.0427 26.9937 39.4651L22.2531 44.2L10.3982 32.3625L14.5935 28.1747C15.287 28.5998 16.0871 28.8277 16.9243 28.8277C18.1204 28.8277 19.2419 28.364 20.0796 27.5248C20.9229 26.6849 21.3875 25.564 21.3875 24.3683C21.3875 24.3572 21.3867 24.3462 21.3867 24.3351C21.3978 24.3352 21.409 24.3358 21.4201 24.3358C22.6145 24.3358 23.7351 23.8736 24.574 23.0358C25.4173 22.1959 25.8819 21.0748 25.8819 19.8793C25.8819 19.8682 25.8811 19.8572 25.8811 19.8461C25.8923 19.8461 25.9036 19.8468 25.915 19.8468C27.109 19.8468 28.2303 19.3851 29.0747 18.5441C29.9514 17.666 30.385 16.5099 30.3767 15.3563C30.3882 15.3564 30.3997 15.3571 30.4112 15.3571C31.6073 15.3569 32.7287 14.8934 33.5677 14.0529C34.4085 13.2132 34.8716 12.0926 34.8716 10.8977C34.8716 10.0621 34.6444 9.2632 34.2207 8.57118L37.8979 4.8956C38.1718 4.62276 38.5097 4.45151 38.8639 4.38084C38.9022 4.37675 38.94 4.37061 38.9775 4.3632C39.5457 4.28486 40.1423 4.4602 40.5769 4.89292C41.3128 5.63018 41.3128 6.82968 40.5795 7.56426L39.4597 8.67955C39.4559 8.68326 39.452 8.68658 39.4483 8.69028L38.1584 9.97797C37.6554 10.4802 37.6549 11.2952 38.1573 11.7981C38.6598 12.3011 39.4746 12.3014 39.9774 11.7992L41.1017 10.6764C41.102 10.6761 41.1022 10.6759 41.1025 10.6756L41.2725 10.5063C42.0105 9.77502 43.2062 9.77656 43.9434 10.5128C44.2982 10.866 44.4936 11.3393 44.4936 11.8453C44.4936 12.3513 44.2982 12.8245 43.9406 13.1806L42.8143 14.3091C42.8142 14.3093 42.8141 14.3094 42.8139 14.3096L41.5242 15.5941C41.0206 16.0957 41.0189 16.9107 41.5205 17.4142C42.0221 17.9179 42.837 17.9194 43.3406 17.4179L44.6362 16.1276C44.9903 15.7728 45.4648 15.5775 45.9725 15.5775C46.4802 15.5775 46.9548 15.7728 47.3115 16.1301C47.6663 16.4835 47.8615 16.9567 47.8615 17.4628C47.8615 17.9687 47.6663 18.442 47.3095 18.7972L45.0641 21.0435C44.5616 21.5463 44.5617 22.3611 45.0643 22.8636C45.3157 23.1149 45.6449 23.2404 45.9742 23.2404C46.3037 23.2404 46.6332 23.1146 46.8844 22.8632L47.9849 21.7624C47.9911 21.7564 47.9979 21.7511 48.0042 21.7449C48.3583 21.3901 48.8328 21.1948 49.3404 21.1948C49.8482 21.1948 50.3227 21.3901 50.6781 21.7462C51.4133 22.4806 51.4127 23.6781 50.6781 24.4139L49.5592 25.5315C49.5588 25.5319 49.5583 25.5323 49.5579 25.5327C49.5575 25.533 49.5572 25.5336 49.5568 25.5339L47.7809 27.3076C47.278 27.81 47.2775 28.625 47.7798 29.1279C48.0311 29.3795 48.3609 29.5054 48.6904 29.5054C49.0195 29.5054 49.3487 29.3799 49.6 29.129L50.4686 28.2614L54.6319 32.4198L42.778 44.2592L38.5308 40.0171C38.8269 39.8266 39.1103 39.6027 39.3762 39.3368L40.5206 38.1938C41.0238 37.6917 41.0243 36.8767 40.5219 36.3738ZM62.1296 37.9677L48.335 51.7455C48.0123 52.0678 47.5804 52.2453 47.1188 52.2453C46.6572 52.2453 46.2252 52.0678 45.9024 51.7454L43.628 49.4738C43.3057 49.152 43.1282 48.7213 43.1282 48.2611C43.1282 47.8011 43.3057 47.3704 43.628 47.0485L57.4226 33.2707C57.7454 32.9482 58.1772 32.7707 58.6389 32.7707C59.1005 32.7707 59.5325 32.9482 59.8561 33.2714L62.1297 35.5387C62.452 35.8606 62.6295 36.2918 62.6295 36.7531C62.6294 37.2146 62.4519 37.6459 62.1296 37.9677Z"/>
</mask>
<path d="M63.9479 33.7169L61.6742 31.4497C60.8654 30.6419 59.7874 30.1969 58.6388 30.1969C57.9044 30.1969 57.1993 30.3796 56.5745 30.722L52.29 26.4426L52.4987 26.2341C54.2368 24.4925 54.2362 21.6625 52.4985 19.9267C51.8776 19.3046 51.1027 18.8898 50.2581 18.7152C50.3744 18.3138 50.4356 17.8933 50.4356 17.463C50.4356 16.2675 49.9712 15.1465 49.1306 14.3093C48.5095 13.6871 47.7348 13.2723 46.8902 13.0977C47.0065 12.6963 47.0677 12.276 47.0677 11.8456C47.0677 10.6499 46.6033 9.52902 45.7612 8.69054C45.1253 8.05539 44.3436 7.65334 43.5227 7.48222C43.9618 5.9682 43.5866 4.2648 42.3955 3.07168C41.4041 2.08445 40.0588 1.66016 38.7623 1.79767L30.2721 0.190624C28.9772 -0.0550021 27.3602 -0.217432 26.3395 0.71357C26.2751 0.772357 26.2094 0.839962 26.1447 0.915234C24.5621 0.338358 22.7162 0.681876 21.4488 1.94783C20.6081 2.78759 20.1449 3.90811 20.1449 5.10302C20.1449 5.53344 20.2059 5.95376 20.322 6.3553C19.4783 6.52974 18.7045 6.94406 18.0856 7.56413C17.2432 8.40312 16.7786 9.52237 16.7777 10.7159C16.7773 11.1473 16.8385 11.569 16.9554 11.9716C16.1113 12.1457 15.3369 12.5592 14.7161 13.1793C13.8737 14.0208 13.4098 15.142 13.4098 16.3363C13.4098 17.251 13.6829 18.1225 14.1889 18.8586C13.5499 19.0752 12.9646 19.4357 12.4745 19.9253C10.7352 21.6625 10.7346 24.4927 12.4757 26.2368L12.6836 26.4439L8.39857 30.7211C6.80609 29.9713 4.84402 30.2522 3.52988 31.5647L1.25484 33.8333C0.445629 34.6415 0.000127797 35.7196 0 36.8689C0 38.0183 0.445629 39.0965 1.25484 39.9049L4.09411 42.7407C4.59699 43.243 5.41195 43.2425 5.91419 42.7397C6.41656 42.2368 6.41605 41.4218 5.91317 40.9196L3.0739 38.0837C2.7516 37.7618 2.57409 37.3304 2.57409 36.869C2.57409 36.4078 2.7516 35.9765 3.07314 35.6553L5.34831 33.3866C5.91675 32.8188 6.78679 32.7342 7.4475 33.1292C7.49402 33.1991 7.54783 33.2655 7.60942 33.3273C7.71971 33.4378 7.84559 33.5225 7.97927 33.5845L21.0265 46.6125C21.0884 46.7476 21.1736 46.8748 21.2846 46.986C21.3927 47.0942 21.5161 47.1779 21.6469 47.2395C21.9228 47.5515 22.0753 47.9499 22.0753 48.375C22.0753 48.8363 21.8978 49.2677 21.5755 49.5896L19.3026 51.8598C18.631 52.5284 17.5386 52.5283 16.8691 51.8618L14.0298 49.0223C13.5272 48.5197 12.7124 48.5197 12.2097 49.0223C11.7071 49.5249 11.7071 50.3397 12.2097 50.8424L15.051 53.6839C15.8874 54.5168 16.9856 54.933 18.0844 54.933C19.1835 54.933 20.2831 54.5162 21.1204 53.6825L23.3947 51.4109C24.2039 50.6026 24.6495 49.5245 24.6495 48.375C24.6495 47.5547 24.4214 46.7713 23.9972 46.0957L28.8198 41.2791C28.8249 41.2738 28.83 41.2686 28.8352 41.2633C29.3875 40.6925 30.9252 40.7993 32.4124 40.9026C33.469 40.9761 34.6471 41.0577 35.798 40.9251L41.0791 46.1999C40.737 46.8237 40.5544 47.5278 40.5544 48.2611C40.5544 49.4094 41 50.4868 41.8092 51.2952L44.0836 53.5667C44.8923 54.3746 45.9703 54.8195 47.1189 54.8195C48.2674 54.8195 49.3454 54.3747 50.1542 53.5667L63.9488 39.7889C64.758 38.9808 65.2036 37.9027 65.2036 36.7533C65.2035 35.604 64.7579 34.5259 63.9479 33.7169ZM29.7928 2.71973L35.3759 3.77648L32.0341 7.11697C31.5172 6.86854 30.8087 6.40514 30.0314 5.66162C28.9675 4.64384 28.2065 3.46875 28.1372 2.73583C28.1371 2.73545 28.1371 2.73507 28.1371 2.73468C28.1371 2.73455 28.137 2.73443 28.137 2.7343C28.132 2.68165 28.1307 2.6396 28.1313 2.60752C28.2996 2.56663 28.7467 2.52126 29.7928 2.71973ZM23.2678 3.76907C23.9198 3.11769 24.9327 3.04254 25.6695 3.54146C26.087 5.29203 27.5803 6.87863 28.2521 7.52145C28.75 7.99788 30.3476 9.42627 31.9601 9.81886C32.1783 10.1316 32.297 10.5044 32.297 10.8977C32.297 11.4044 32.1021 11.8782 31.747 12.2329C31.3929 12.5877 30.9183 12.783 30.4107 12.783C29.903 12.783 29.4285 12.5877 29.0727 12.2313L29.0726 12.2312L29.0719 12.2305L23.2676 6.43671C22.9138 6.08335 22.7189 5.60961 22.7189 5.10302C22.719 4.5963 22.9139 4.12256 23.2678 3.76907ZM19.9047 9.38537C20.2588 9.03073 20.7328 8.83533 21.2396 8.83533C21.7471 8.83533 22.2226 9.03112 22.5791 9.38716L27.2529 14.0516C27.9888 14.7888 27.9888 15.9883 27.2554 16.7228C26.8994 17.0775 26.4232 17.2728 25.9147 17.2728C25.4062 17.2728 24.93 17.0775 24.5755 16.7244L24.5754 16.7242L21.0297 13.1793C21.0242 13.1738 21.0182 13.1687 21.0125 13.1631L19.9032 12.0543C19.5473 11.6988 19.3514 11.2241 19.3518 10.7178C19.3523 10.2131 19.5476 9.7409 19.9047 9.38537ZM16.5352 15.0005C16.8895 14.6467 17.3646 14.4518 17.8729 14.4518C18.3771 14.4518 18.848 14.6438 19.2009 14.9916L22.7575 18.5465C23.1121 18.8997 23.3075 19.373 23.3075 19.879C23.3075 20.385 23.1121 20.8582 22.7561 21.2129C22.4018 21.5666 21.9273 21.7615 21.4198 21.7615C20.9116 21.7615 20.4355 21.5661 20.0808 21.2129L18.7914 19.9251C18.7912 19.9247 18.7908 19.9244 18.7905 19.9242L16.5353 17.6716C16.1798 17.3165 15.984 16.8421 15.984 16.336C15.984 15.8301 16.1798 15.3555 16.5352 15.0005ZM14.2936 21.7464C14.6495 21.3909 15.1252 21.1951 15.6329 21.1951C16.1405 21.1951 16.6161 21.3908 16.9718 21.746L18.263 23.0356C18.6177 23.3889 18.813 23.8621 18.813 24.3682C18.813 24.8743 18.6176 25.3474 18.2603 25.7034C17.9062 26.058 17.4317 26.2534 16.924 26.2534C16.4163 26.2534 15.9418 26.0582 15.5851 25.7008L15.4235 25.5398C15.4213 25.5376 15.4196 25.5353 15.4176 25.5333C15.4151 25.531 15.4126 25.529 15.4102 25.5267L14.2949 24.4157C13.5589 23.6782 13.5583 22.4809 14.2936 21.7464ZM40.5219 36.3738C40.0195 35.8708 39.2046 35.8704 38.7018 36.3727L37.5568 37.5163C36.4687 38.6044 34.4972 38.4674 32.5906 38.3351C30.5201 38.1912 28.3791 38.0427 26.9937 39.4651L22.2531 44.2L10.3982 32.3625L14.5935 28.1747C15.287 28.5998 16.0871 28.8277 16.9243 28.8277C18.1204 28.8277 19.2419 28.364 20.0796 27.5248C20.9229 26.6849 21.3875 25.564 21.3875 24.3683C21.3875 24.3572 21.3867 24.3462 21.3867 24.3351C21.3978 24.3352 21.409 24.3358 21.4201 24.3358C22.6145 24.3358 23.7351 23.8736 24.574 23.0358C25.4173 22.1959 25.8819 21.0748 25.8819 19.8793C25.8819 19.8682 25.8811 19.8572 25.8811 19.8461C25.8923 19.8461 25.9036 19.8468 25.915 19.8468C27.109 19.8468 28.2303 19.3851 29.0747 18.5441C29.9514 17.666 30.385 16.5099 30.3767 15.3563C30.3882 15.3564 30.3997 15.3571 30.4112 15.3571C31.6073 15.3569 32.7287 14.8934 33.5677 14.0529C34.4085 13.2132 34.8716 12.0926 34.8716 10.8977C34.8716 10.0621 34.6444 9.2632 34.2207 8.57118L37.8979 4.8956C38.1718 4.62276 38.5097 4.45151 38.8639 4.38084C38.9022 4.37675 38.94 4.37061 38.9775 4.3632C39.5457 4.28486 40.1423 4.4602 40.5769 4.89292C41.3128 5.63018 41.3128 6.82968 40.5795 7.56426L39.4597 8.67955C39.4559 8.68326 39.452 8.68658 39.4483 8.69028L38.1584 9.97797C37.6554 10.4802 37.6549 11.2952 38.1573 11.7981C38.6598 12.3011 39.4746 12.3014 39.9774 11.7992L41.1017 10.6764C41.102 10.6761 41.1022 10.6759 41.1025 10.6756L41.2725 10.5063C42.0105 9.77502 43.2062 9.77656 43.9434 10.5128C44.2982 10.866 44.4936 11.3393 44.4936 11.8453C44.4936 12.3513 44.2982 12.8245 43.9406 13.1806L42.8143 14.3091C42.8142 14.3093 42.8141 14.3094 42.8139 14.3096L41.5242 15.5941C41.0206 16.0957 41.0189 16.9107 41.5205 17.4142C42.0221 17.9179 42.837 17.9194 43.3406 17.4179L44.6362 16.1276C44.9903 15.7728 45.4648 15.5775 45.9725 15.5775C46.4802 15.5775 46.9548 15.7728 47.3115 16.1301C47.6663 16.4835 47.8615 16.9567 47.8615 17.4628C47.8615 17.9687 47.6663 18.442 47.3095 18.7972L45.0641 21.0435C44.5616 21.5463 44.5617 22.3611 45.0643 22.8636C45.3157 23.1149 45.6449 23.2404 45.9742 23.2404C46.3037 23.2404 46.6332 23.1146 46.8844 22.8632L47.9849 21.7624C47.9911 21.7564 47.9979 21.7511 48.0042 21.7449C48.3583 21.3901 48.8328 21.1948 49.3404 21.1948C49.8482 21.1948 50.3227 21.3901 50.6781 21.7462C51.4133 22.4806 51.4127 23.6781 50.6781 24.4139L49.5592 25.5315C49.5588 25.5319 49.5583 25.5323 49.5579 25.5327C49.5575 25.533 49.5572 25.5336 49.5568 25.5339L47.7809 27.3076C47.278 27.81 47.2775 28.625 47.7798 29.1279C48.0311 29.3795 48.3609 29.5054 48.6904 29.5054C49.0195 29.5054 49.3487 29.3799 49.6 29.129L50.4686 28.2614L54.6319 32.4198L42.778 44.2592L38.5308 40.0171C38.8269 39.8266 39.1103 39.6027 39.3762 39.3368L40.5206 38.1938C41.0238 37.6917 41.0243 36.8767 40.5219 36.3738ZM62.1296 37.9677L48.335 51.7455C48.0123 52.0678 47.5804 52.2453 47.1188 52.2453C46.6572 52.2453 46.2252 52.0678 45.9024 51.7454L43.628 49.4738C43.3057 49.152 43.1282 48.7213 43.1282 48.2611C43.1282 47.8011 43.3057 47.3704 43.628 47.0485L57.4226 33.2707C57.7454 32.9482 58.1772 32.7707 58.6389 32.7707C59.1005 32.7707 59.5325 32.9482 59.8561 33.2714L62.1297 35.5387C62.452 35.8606 62.6295 36.2918 62.6295 36.7531C62.6294 37.2146 62.4519 37.6459 62.1296 37.9677Z" fill="white" stroke="#065C62" stroke-width="0.2" mask="url(#path-1-inside-1_54_102)"/>
</svg>
